<?xml version="1.0" encoding="UTF-8" standalone="no"?>
<!DOCTYPE svg PUBLIC "-//W3C//DTD SVG 1.1//EN"
 "http://www.w3.org/Graphics/SVG/1.1/DTD/svg11.dtd">
<!-- Generated by graphviz version 2.38.0 (20140413.2041)
 -->
<!-- Title: packages_hisim Pages: 1 -->
<svg width="7580pt" height="404pt"
 viewBox="0.00 0.00 7580.48 404.00" xmlns="http://www.w3.org/2000/svg" xmlns:xlink="http://www.w3.org/1999/xlink">
<g id="graph0" class="graph" transform="scale(1 1) rotate(0) translate(4 400)">
<title>packages_hisim</title>
<polygon fill="white" stroke="none" points="-4,4 -4,-400 7576.48,-400 7576.48,4 -4,4"/>
<!-- 0 -->
<g id="node1" class="node"><title>0</title>
<polygon fill="none" stroke="black" points="2205.98,-396 2151.98,-396 2151.98,-360 2205.98,-360 2205.98,-396"/>
<text text-anchor="middle" x="2178.98" y="-374.3" font-family="Times New Roman,serif" font-size="14.00">hisim</text>
</g>
<!-- 1 -->
<g id="node2" class="node"><title>1</title>
<polygon fill="none" stroke="black" points="3698.48,-324 3585.48,-324 3585.48,-288 3698.48,-288 3698.48,-324"/>
<text text-anchor="middle" x="3641.98" y="-302.3" font-family="Times New Roman,serif" font-size="14.00">hisim.component</text>
</g>
<!-- 1&#45;&gt;0 -->
<g id="edge1" class="edge"><title>1&#45;&gt;0</title>
<path fill="none" stroke="black" d="M3585.08,-309.723C3344.58,-321.23 2414.76,-365.718 2216.36,-375.212"/>
<polygon fill="black" stroke="black" points="2206.16,-375.7 2215.93,-370.727 2211.15,-375.461 2216.15,-375.222 2216.15,-375.222 2216.15,-375.222 2211.15,-375.461 2216.36,-379.716 2206.16,-375.7 2206.16,-375.7"/>
</g>
<!-- 40 -->
<g id="node41" class="node"><title>40</title>
<polygon fill="none" stroke="black" points="3858.98,-396 3754.98,-396 3754.98,-360 3858.98,-360 3858.98,-396"/>
<text text-anchor="middle" x="3806.98" y="-374.3" font-family="Times New Roman,serif" font-size="14.00">hisim.loadtypes</text>
</g>
<!-- 1&#45;&gt;40 -->
<g id="edge2" class="edge"><title>1&#45;&gt;40</title>
<path fill="none" stroke="black" d="M3682.34,-324.124C3705,-333.736 3733.45,-345.807 3757.45,-355.987"/>
<polygon fill="black" stroke="black" points="3766.75,-359.932 3755.78,-360.169 3762.14,-357.979 3757.54,-356.026 3757.54,-356.026 3757.54,-356.026 3762.14,-357.979 3759.3,-351.884 3766.75,-359.932 3766.75,-359.932"/>
</g>
<!-- 47 -->
<g id="node48" class="node"><title>47</title>
<polygon fill="none" stroke="black" points="5648.48,-396 5481.48,-396 5481.48,-360 5648.48,-360 5648.48,-396"/>
<text text-anchor="middle" x="5564.98" y="-374.3" font-family="Times New Roman,serif" font-size="14.00">hisim.simulationparameters</text>
</g>
<!-- 1&#45;&gt;47 -->
<g id="edge3" class="edge"><title>1&#45;&gt;47</title>
<path fill="none" stroke="black" d="M3698.75,-317.588C3714.33,-320.112 3731.26,-322.505 3746.98,-324 4086.61,-356.303 5148.22,-371.835 5470.97,-375.893"/>
<polygon fill="black" stroke="black" points="5481.22,-376.021 5471.16,-380.395 5476.22,-375.958 5471.22,-375.896 5471.22,-375.896 5471.22,-375.896 5476.22,-375.958 5471.28,-371.396 5481.22,-376.021 5481.22,-376.021"/>
</g>
<!-- 2 -->
<g id="node3" class="node"><title>2</title>
<polygon fill="none" stroke="black" points="6966.48,-252 6847.48,-252 6847.48,-216 6966.48,-216 6966.48,-252"/>
<text text-anchor="middle" x="6906.98" y="-230.3" font-family="Times New Roman,serif" font-size="14.00">hisim.components</text>
</g>
<!-- 3 -->
<g id="node4" class="node"><title>3</title>
<polygon fill="none" stroke="black" points="6669.48,-36 6518.48,-36 6518.48,-0 6669.48,-0 6669.48,-36"/>
<text text-anchor="middle" x="6593.98" y="-14.3" font-family="Times New Roman,serif" font-size="14.00">hisim.components.PFM</text>
</g>
<!-- 4 -->
<g id="node5" class="node"><title>4</title>
<polygon fill="none" stroke="black" points="4902.48,-252 4681.48,-252 4681.48,-216 4902.48,-216 4902.48,-252"/>
<text text-anchor="middle" x="4791.98" y="-230.3" font-family="Times New Roman,serif" font-size="14.00">hisim.components.advanced_battery</text>
</g>
<!-- 4&#45;&gt;0 -->
<g id="edge4" class="edge"><title>4&#45;&gt;0</title>
<path fill="none" stroke="black" d="M4681.27,-251.418C4535.05,-272.345 4269.35,-307.751 4040.98,-324 3307.67,-376.178 2408.45,-377.481 2216.22,-377.118"/>
<polygon fill="black" stroke="black" points="2206.09,-377.096 2216.1,-372.618 2211.09,-377.107 2216.09,-377.118 2216.09,-377.118 2216.09,-377.118 2211.09,-377.107 2216.08,-381.618 2206.09,-377.096 2206.09,-377.096"/>
</g>
<!-- 4&#45;&gt;1 -->
<g id="edge5" class="edge"><title>4&#45;&gt;1</title>
<path fill="none" stroke="black" d="M4681.2,-251.112C4678.1,-251.429 4675.02,-251.726 4671.98,-252 4262.22,-288.902 4156.36,-247.047 3746.98,-288 3734.51,-289.247 3721.27,-291.028 3708.55,-292.971"/>
<polygon fill="black" stroke="black" points="3698.49,-294.558 3707.66,-288.556 3703.43,-293.779 3708.36,-293.001 3708.36,-293.001 3708.36,-293.001 3703.43,-293.779 3709.07,-297.446 3698.49,-294.558 3698.49,-294.558"/>
</g>
<!-- 4&#45;&gt;40 -->
<g id="edge6" class="edge"><title>4&#45;&gt;40</title>
<path fill="none" stroke="black" d="M4756.11,-252.059C4710.19,-273.023 4627.62,-307.802 4552.98,-324 4423.13,-352.18 4024.07,-369.178 3869.26,-374.861"/>
<polygon fill="black" stroke="black" points="3858.98,-375.235 3868.81,-370.374 3863.98,-375.053 3868.98,-374.871 3868.98,-374.871 3868.98,-374.871 3863.98,-375.053 3869.14,-379.368 3858.98,-375.235 3858.98,-375.235"/>
</g>
<!-- 4&#45;&gt;47 -->
<g id="edge7" class="edge"><title>4&#45;&gt;47</title>
<path fill="none" stroke="black" d="M4866.25,-252.084C4950.16,-271.063 5090.95,-301.934 5212.98,-324 5300.07,-339.748 5399.87,-354.462 5470.92,-364.371"/>
<polygon fill="black" stroke="black" points="5481.18,-365.798 5470.66,-368.879 5476.23,-365.11 5471.28,-364.422 5471.28,-364.422 5471.28,-364.422 5476.23,-365.11 5471.9,-359.965 5481.18,-365.798 5481.18,-365.798"/>
</g>
<!-- 5 -->
<g id="node6" class="node"><title>5</title>
<polygon fill="none" stroke="black" points="3832.48,-180 3671.48,-180 3671.48,-144 3832.48,-144 3832.48,-180"/>
<text text-anchor="middle" x="3751.98" y="-158.3" font-family="Times New Roman,serif" font-size="14.00">hisim.components.battery</text>
</g>
<!-- 5&#45;&gt;0 -->
<g id="edge8" class="edge"><title>5&#45;&gt;0</title>
<path fill="none" stroke="black" d="M3671.37,-167.998C3603.74,-171.976 3504.59,-177.307 3417.98,-180 3373.75,-181.375 263.094,-184.532 231.98,-216 198.231,-250.132 198.504,-289.6 231.98,-324 266.58,-359.555 1874.85,-374.469 2141.66,-376.7"/>
<polygon fill="black" stroke="black" points="2151.98,-376.785 2141.94,-381.202 2146.98,-376.744 2141.98,-376.702 2141.98,-376.702 2141.98,-376.702 2146.98,-376.744 2142.01,-372.203 2151.98,-376.785 2151.98,-376.785"/>
</g>
<!-- 5&#45;&gt;1 -->
<g id="edge9" class="edge"><title>5&#45;&gt;1</title>
<path fill="none" stroke="black" d="M3734.57,-180.017C3724.59,-190.106 3712.09,-203.356 3701.98,-216 3685.82,-236.198 3669.55,-260.658 3658.03,-278.82"/>
<polygon fill="black" stroke="black" points="3652.47,-287.688 3653.97,-276.825 3655.13,-283.452 3657.78,-279.216 3657.78,-279.216 3657.78,-279.216 3655.13,-283.452 3661.6,-281.607 3652.47,-287.688 3652.47,-287.688"/>
</g>
<!-- 15 -->
<g id="node16" class="node"><title>15</title>
<polygon fill="none" stroke="black" points="3535.98,-252 3351.98,-252 3351.98,-216 3535.98,-216 3535.98,-252"/>
<text text-anchor="middle" x="3443.98" y="-230.3" font-family="Times New Roman,serif" font-size="14.00">hisim.components.ev_charger</text>
</g>
<!-- 5&#45;&gt;15 -->
<g id="edge10" class="edge"><title>5&#45;&gt;15</title>
<path fill="none" stroke="black" d="M3677.03,-180.034C3632.32,-190.195 3575.42,-203.128 3529.03,-213.67"/>
<polygon fill="black" stroke="black" points="3519,-215.95 3527.75,-209.346 3523.88,-214.842 3528.75,-213.734 3528.75,-213.734 3528.75,-213.734 3523.88,-214.842 3529.75,-218.122 3519,-215.95 3519,-215.95"/>
</g>
<!-- 5&#45;&gt;40 -->
<g id="edge11" class="edge"><title>5&#45;&gt;40</title>
<path fill="none" stroke="black" d="M3832.59,-163.908C4174.21,-167.941 5486.29,-185.406 5515.98,-216 5527.12,-227.482 5526.47,-239.923 5515.98,-252 5365.54,-425.122 5233.36,-302.907 5004.98,-324 4571.53,-364.032 4046.97,-374.027 3869.27,-376.346"/>
<polygon fill="black" stroke="black" points="3859.06,-376.475 3869,-371.849 3864.06,-376.412 3869.06,-376.348 3869.06,-376.348 3869.06,-376.348 3864.06,-376.412 3869.12,-380.848 3859.06,-376.475 3859.06,-376.475"/>
</g>
<!-- 5&#45;&gt;47 -->
<g id="edge12" class="edge"><title>5&#45;&gt;47</title>
<path fill="none" stroke="black" d="M3832.75,-163.955C4258.48,-169.084 6223.38,-193.935 6244.98,-216 6278.56,-250.3 6277.58,-288.765 6244.98,-324 6206.01,-366.128 5836.11,-374.845 5658.83,-376.594"/>
<polygon fill="black" stroke="black" points="5648.73,-376.688 5658.69,-372.095 5653.73,-376.642 5658.73,-376.595 5658.73,-376.595 5658.73,-376.595 5653.73,-376.642 5658.77,-381.095 5648.73,-376.688 5648.73,-376.688"/>
</g>
<!-- 49 -->
<g id="node50" class="node"><title>49</title>
<polygon fill="none" stroke="black" points="3827.98,-324 3755.98,-324 3755.98,-288 3827.98,-288 3827.98,-324"/>
<text text-anchor="middle" x="3791.98" y="-302.3" font-family="Times New Roman,serif" font-size="14.00">hisim.utils</text>
</g>
<!-- 5&#45;&gt;49 -->
<g id="edge13" class="edge"><title>5&#45;&gt;49</title>
<path fill="none" stroke="black" d="M3756.8,-180.129C3763.65,-204.436 3776.26,-249.181 3784.37,-277.987"/>
<polygon fill="black" stroke="black" points="3787.14,-287.811 3780.09,-279.405 3785.78,-282.998 3784.43,-278.185 3784.43,-278.185 3784.43,-278.185 3785.78,-282.998 3788.76,-276.965 3787.14,-287.811 3787.14,-287.811"/>
</g>
<!-- 6 -->
<g id="node7" class="node"><title>6</title>
<polygon fill="none" stroke="black" points="5507.48,-252 5340.48,-252 5340.48,-216 5507.48,-216 5507.48,-252"/>
<text text-anchor="middle" x="5423.98" y="-230.3" font-family="Times New Roman,serif" font-size="14.00">hisim.components.building</text>
</g>
<!-- 6&#45;&gt;0 -->
<g id="edge14" class="edge"><title>6&#45;&gt;0</title>
<path fill="none" stroke="black" d="M5340.38,-250.586C5337.21,-251.08 5334.07,-251.554 5330.98,-252 5032.38,-295.155 4957.07,-304.756 4655.98,-324 4151.63,-356.236 2486.15,-373.948 2216.12,-376.639"/>
<polygon fill="black" stroke="black" points="2206.05,-376.739 2216,-372.14 2211.05,-376.689 2216.05,-376.639 2216.05,-376.639 2216.05,-376.639 2211.05,-376.689 2216.09,-381.139 2206.05,-376.739 2206.05,-376.739"/>
</g>
<!-- 6&#45;&gt;1 -->
<g id="edge15" class="edge"><title>6&#45;&gt;1</title>
<path fill="none" stroke="black" d="M5340.42,-250.918C5337.24,-251.32 5334.08,-251.683 5330.98,-252 4630.44,-323.535 4448.21,-223.575 3746.98,-288 3734.57,-289.14 3721.41,-290.86 3708.76,-292.774"/>
<polygon fill="black" stroke="black" points="3698.74,-294.344 3707.93,-288.35 3703.68,-293.57 3708.62,-292.796 3708.62,-292.796 3708.62,-292.796 3703.68,-293.57 3709.32,-297.241 3698.74,-294.344 3698.74,-294.344"/>
</g>
<!-- 8 -->
<g id="node9" class="node"><title>8</title>
<polygon fill="none" stroke="black" points="5826.98,-324 5630.98,-324 5630.98,-288 5826.98,-288 5826.98,-324"/>
<text text-anchor="middle" x="5728.98" y="-302.3" font-family="Times New Roman,serif" font-size="14.00">hisim.components.configuration</text>
</g>
<!-- 6&#45;&gt;8 -->
<g id="edge16" class="edge"><title>6&#45;&gt;8</title>
<path fill="none" stroke="black" d="M5498.2,-252.034C5542.47,-262.195 5598.82,-275.128 5644.76,-285.67"/>
<polygon fill="black" stroke="black" points="5654.69,-287.95 5643.94,-290.099 5649.82,-286.831 5644.94,-285.713 5644.94,-285.713 5644.94,-285.713 5649.82,-286.831 5645.95,-281.327 5654.69,-287.95 5654.69,-287.95"/>
</g>
<!-- 6&#45;&gt;40 -->
<g id="edge17" class="edge"><title>6&#45;&gt;40</title>
<path fill="none" stroke="black" d="M5340.45,-251.099C5230.35,-271.635 5030.43,-306.571 4857.98,-324 4484.02,-361.795 4032.34,-373.072 3869.38,-376.044"/>
<polygon fill="black" stroke="black" points="3859.06,-376.228 3868.98,-371.55 3864.06,-376.138 3869.06,-376.049 3869.06,-376.049 3869.06,-376.049 3864.06,-376.138 3869.14,-380.549 3859.06,-376.228 3859.06,-376.228"/>
</g>
<!-- 6&#45;&gt;47 -->
<g id="edge18" class="edge"><title>6&#45;&gt;47</title>
<path fill="none" stroke="black" d="M5440.99,-252.129C5465.87,-277.183 5512.3,-323.948 5540.75,-352.594"/>
<polygon fill="black" stroke="black" points="5547.91,-359.811 5537.67,-355.885 5544.39,-356.263 5540.87,-352.715 5540.87,-352.715 5540.87,-352.715 5544.39,-356.263 5544.06,-349.544 5547.91,-359.811 5547.91,-359.811"/>
</g>
<!-- 6&#45;&gt;49 -->
<g id="edge19" class="edge"><title>6&#45;&gt;49</title>
<path fill="none" stroke="black" d="M5340.41,-250.872C5337.23,-251.286 5334.08,-251.665 5330.98,-252 5030.74,-284.435 4061.89,-300.898 3838.31,-304.32"/>
<polygon fill="black" stroke="black" points="3828.23,-304.473 3838.16,-299.822 3833.23,-304.397 3838.23,-304.321 3838.23,-304.321 3838.23,-304.321 3833.23,-304.397 3838.3,-308.821 3828.23,-304.473 3828.23,-304.473"/>
</g>
<!-- 7 -->
<g id="node8" class="node"><title>7</title>
<polygon fill="none" stroke="black" points="5753.98,-252 5563.98,-252 5563.98,-216 5753.98,-216 5753.98,-252"/>
<text text-anchor="middle" x="5658.98" y="-230.3" font-family="Times New Roman,serif" font-size="14.00">hisim.components.chp_system</text>
</g>
<!-- 7&#45;&gt;0 -->
<g id="edge20" class="edge"><title>7&#45;&gt;0</title>
<path fill="none" stroke="black" d="M5563.78,-248.734C5416.35,-269.336 5123.75,-307.573 4873.98,-324 4323.33,-360.215 2499.97,-374.685 2216.23,-376.74"/>
<polygon fill="black" stroke="black" points="2206.06,-376.813 2216.03,-372.241 2211.06,-376.777 2216.06,-376.741 2216.06,-376.741 2216.06,-376.741 2211.06,-376.777 2216.09,-381.241 2206.06,-376.813 2206.06,-376.813"/>
</g>
<!-- 7&#45;&gt;1 -->
<g id="edge21" class="edge"><title>7&#45;&gt;1</title>
<path fill="none" stroke="black" d="M5563.72,-247.641C5547.8,-249.375 5531.44,-250.926 5515.98,-252 4731.48,-306.482 4530.15,-216.984 3746.98,-288 3734.57,-289.125 3721.41,-290.838 3708.76,-292.75"/>
<polygon fill="black" stroke="black" points="3698.74,-294.32 3707.92,-288.326 3703.68,-293.546 3708.62,-292.772 3708.62,-292.772 3708.62,-292.772 3703.68,-293.546 3709.32,-297.217 3698.74,-294.32 3698.74,-294.32"/>
</g>
<!-- 7&#45;&gt;8 -->
<g id="edge22" class="edge"><title>7&#45;&gt;8</title>
<path fill="none" stroke="black" d="M5676.28,-252.303C5684.84,-260.865 5695.32,-271.344 5704.68,-280.696"/>
<polygon fill="black" stroke="black" points="5711.88,-287.896 5701.62,-284.007 5708.34,-284.36 5704.8,-280.825 5704.8,-280.825 5704.8,-280.825 5708.34,-284.36 5707.99,-277.643 5711.88,-287.896 5711.88,-287.896"/>
</g>
<!-- 7&#45;&gt;40 -->
<g id="edge23" class="edge"><title>7&#45;&gt;40</title>
<path fill="none" stroke="black" d="M5637.29,-252.012C5608.5,-273.451 5555.2,-309.275 5502.98,-324 5343.69,-368.917 4157.16,-375.816 3869.61,-376.831"/>
<polygon fill="black" stroke="black" points="3859.36,-376.866 3869.35,-372.332 3864.36,-376.849 3869.36,-376.832 3869.36,-376.832 3869.36,-376.832 3864.36,-376.849 3869.38,-381.332 3859.36,-376.866 3859.36,-376.866"/>
</g>
<!-- 7&#45;&gt;47 -->
<g id="edge24" class="edge"><title>7&#45;&gt;47</title>
<path fill="none" stroke="black" d="M5646.81,-252.067C5639.51,-262.396 5630.09,-275.874 5621.98,-288 5607.91,-309.04 5592.45,-333.248 5581.19,-351.101"/>
<polygon fill="black" stroke="black" points="5575.71,-359.807 5577.22,-348.947 5578.37,-355.575 5581.03,-351.343 5581.03,-351.343 5581.03,-351.343 5578.37,-355.575 5584.84,-353.74 5575.71,-359.807 5575.71,-359.807"/>
</g>
<!-- 7&#45;&gt;49 -->
<g id="edge25" class="edge"><title>7&#45;&gt;49</title>
<path fill="none" stroke="black" d="M5563.71,-247.503C5547.8,-249.254 5531.44,-250.846 5515.98,-252 4851.14,-301.642 4038.74,-305.025 3838.3,-305.063"/>
<polygon fill="black" stroke="black" points="3828.14,-305.063 3838.14,-300.564 3833.14,-305.063 3838.14,-305.064 3838.14,-305.064 3838.14,-305.064 3833.14,-305.063 3838.14,-309.564 3828.14,-305.063 3828.14,-305.063"/>
</g>
<!-- 9 -->
<g id="node10" class="node"><title>9</title>
<polygon fill="none" stroke="black" points="4479.98,-252 4291.98,-252 4291.98,-216 4479.98,-216 4479.98,-252"/>
<text text-anchor="middle" x="4385.98" y="-230.3" font-family="Times New Roman,serif" font-size="14.00">hisim.components.controllable</text>
</g>
<!-- 9&#45;&gt;0 -->
<g id="edge26" class="edge"><title>9&#45;&gt;0</title>
<path fill="none" stroke="black" d="M4291.71,-250.768C4288.77,-251.193 4285.85,-251.605 4282.98,-252 4138.13,-271.912 4091.39,-232.839 3955.98,-288 3931.94,-297.794 3934.39,-315.163 3909.98,-324 3745.79,-383.436 2454.2,-378.645 2216.5,-377.249"/>
<polygon fill="black" stroke="black" points="2206.3,-377.188 2216.33,-372.748 2211.3,-377.218 2216.3,-377.248 2216.3,-377.248 2216.3,-377.248 2211.3,-377.218 2216.27,-381.748 2206.3,-377.188 2206.3,-377.188"/>
</g>
<!-- 9&#45;&gt;1 -->
<g id="edge27" class="edge"><title>9&#45;&gt;1</title>
<path fill="none" stroke="black" d="M4291.73,-250.929C4288.78,-251.308 4285.86,-251.666 4282.98,-252 4045.81,-279.472 3984.19,-260.891 3746.98,-288 3734.53,-289.423 3721.3,-291.286 3708.58,-293.256"/>
<polygon fill="black" stroke="black" points="3698.52,-294.852 3707.69,-288.841 3703.46,-294.069 3708.39,-293.286 3708.39,-293.286 3708.39,-293.286 3703.46,-294.069 3709.1,-297.73 3698.52,-294.852 3698.52,-294.852"/>
</g>
<!-- 9&#45;&gt;40 -->
<g id="edge28" class="edge"><title>9&#45;&gt;40</title>
<path fill="none" stroke="black" d="M4316.43,-252.058C4202.5,-279.999 3977.92,-335.077 3869.06,-361.776"/>
<polygon fill="black" stroke="black" points="3859.21,-364.192 3867.85,-357.439 3864.06,-363.001 3868.92,-361.81 3868.92,-361.81 3868.92,-361.81 3864.06,-363.001 3869.99,-366.18 3859.21,-364.192 3859.21,-364.192"/>
</g>
<!-- 9&#45;&gt;47 -->
<g id="edge29" class="edge"><title>9&#45;&gt;47</title>
<path fill="none" stroke="black" d="M4456.97,-252.018C4544.58,-272.359 4698.38,-305.912 4831.98,-324 5060.33,-354.916 5331.31,-368.589 5471.11,-373.961"/>
<polygon fill="black" stroke="black" points="5481.36,-374.349 5471.2,-378.468 5476.36,-374.16 5471.37,-373.971 5471.37,-373.971 5471.37,-373.971 5476.36,-374.16 5471.54,-369.474 5481.36,-374.349 5481.36,-374.349"/>
</g>
<!-- 9&#45;&gt;49 -->
<g id="edge30" class="edge"><title>9&#45;&gt;49</title>
<path fill="none" stroke="black" d="M4291.72,-250.811C4288.77,-251.224 4285.85,-251.621 4282.98,-252 4121.37,-273.284 4079.89,-269.099 3917.98,-288 3891.53,-291.088 3862.02,-295.041 3838.22,-298.358"/>
<polygon fill="black" stroke="black" points="3828.05,-299.784 3837.33,-293.938 3833.01,-299.089 3837.96,-298.395 3837.96,-298.395 3837.96,-298.395 3833.01,-299.089 3838.58,-302.851 3828.05,-299.784 3828.05,-299.784"/>
</g>
<!-- 10 -->
<g id="node11" class="node"><title>10</title>
<polygon fill="none" stroke="black" points="5096.98,-252 4920.98,-252 4920.98,-216 5096.98,-216 5096.98,-252"/>
<text text-anchor="middle" x="5008.98" y="-230.3" font-family="Times New Roman,serif" font-size="14.00">hisim.components.controller</text>
</g>
<!-- 10&#45;&gt;0 -->
<g id="edge31" class="edge"><title>10&#45;&gt;0</title>
<path fill="none" stroke="black" d="M4920.87,-250.567C4917.54,-251.067 4914.23,-251.547 4910.98,-252 4609.98,-293.995 4534.24,-304.061 4230.98,-324 3417.87,-377.463 2420.2,-377.703 2216.37,-377.145"/>
<polygon fill="black" stroke="black" points="2206.2,-377.115 2216.22,-372.645 2211.2,-377.13 2216.2,-377.145 2216.2,-377.145 2216.2,-377.145 2211.2,-377.13 2216.19,-381.645 2206.2,-377.115 2206.2,-377.115"/>
</g>
<!-- 10&#45;&gt;1 -->
<g id="edge32" class="edge"><title>10&#45;&gt;1</title>
<path fill="none" stroke="black" d="M4920.91,-250.88C4917.56,-251.292 4914.24,-251.668 4910.98,-252 4396.05,-304.361 4262.19,-238.535 3746.98,-288 3734.58,-289.191 3721.42,-290.934 3708.77,-292.857"/>
<polygon fill="black" stroke="black" points="3698.75,-294.43 3707.93,-288.433 3703.69,-293.654 3708.63,-292.878 3708.63,-292.878 3708.63,-292.878 3703.69,-293.654 3709.33,-297.324 3698.75,-294.43 3698.75,-294.43"/>
</g>
<!-- 10&#45;&gt;40 -->
<g id="edge33" class="edge"><title>10&#45;&gt;40</title>
<path fill="none" stroke="black" d="M4949.21,-252.005C4874,-272.66 4740.55,-306.861 4623.98,-324 4344.73,-365.057 4007.12,-374.309 3869.71,-376.394"/>
<polygon fill="black" stroke="black" points="3859.38,-376.542 3869.32,-371.899 3864.38,-376.47 3869.38,-376.398 3869.38,-376.398 3869.38,-376.398 3864.38,-376.47 3869.45,-380.898 3859.38,-376.542 3859.38,-376.542"/>
</g>
<!-- 10&#45;&gt;47 -->
<g id="edge34" class="edge"><title>10&#45;&gt;47</title>
<path fill="none" stroke="black" d="M5072.12,-252.008C5139.95,-270.189 5250.95,-299.686 5346.98,-324 5391.98,-335.393 5442.32,-347.664 5483.29,-357.527"/>
<polygon fill="black" stroke="black" points="5493.22,-359.916 5482.44,-361.953 5488.36,-358.747 5483.5,-357.578 5483.5,-357.578 5483.5,-357.578 5488.36,-358.747 5484.55,-353.202 5493.22,-359.916 5493.22,-359.916"/>
</g>
<!-- 11 -->
<g id="node12" class="node"><title>11</title>
<polygon fill="none" stroke="black" points="4071.98,-252 3895.98,-252 3895.98,-216 4071.98,-216 4071.98,-252"/>
<text text-anchor="middle" x="3983.98" y="-230.3" font-family="Times New Roman,serif" font-size="14.00">hisim.components.csvloader</text>
</g>
<!-- 11&#45;&gt;0 -->
<g id="edge35" class="edge"><title>11&#45;&gt;0</title>
<path fill="none" stroke="black" d="M3945.28,-252.155C3925.19,-261.689 3900.6,-274.365 3879.98,-288 3859.19,-301.746 3860.27,-315.115 3836.98,-324 3681.04,-383.498 2447.93,-378.7 2216.39,-377.263"/>
<polygon fill="black" stroke="black" points="2206.13,-377.198 2216.15,-372.762 2211.13,-377.23 2216.13,-377.262 2216.13,-377.262 2216.13,-377.262 2211.13,-377.23 2216.1,-381.762 2206.13,-377.198 2206.13,-377.198"/>
</g>
<!-- 11&#45;&gt;1 -->
<g id="edge36" class="edge"><title>11&#45;&gt;1</title>
<path fill="none" stroke="black" d="M3900.75,-252.034C3841.75,-264.111 3763.62,-280.104 3708.7,-291.345"/>
<polygon fill="black" stroke="black" points="3698.72,-293.386 3707.62,-286.972 3703.62,-292.384 3708.52,-291.381 3708.52,-291.381 3708.52,-291.381 3703.62,-292.384 3709.42,-295.789 3698.72,-293.386 3698.72,-293.386"/>
</g>
<!-- 11&#45;&gt;40 -->
<g id="edge37" class="edge"><title>11&#45;&gt;40</title>
<path fill="none" stroke="black" d="M3962.63,-252.129C3931.13,-277.396 3872.11,-324.746 3836.5,-353.321"/>
<polygon fill="black" stroke="black" points="3828.41,-359.811 3833.39,-350.043 3832.31,-356.682 3836.21,-353.553 3836.21,-353.553 3836.21,-353.553 3832.31,-356.682 3839.02,-357.063 3828.41,-359.811 3828.41,-359.811"/>
</g>
<!-- 11&#45;&gt;47 -->
<g id="edge38" class="edge"><title>11&#45;&gt;47</title>
<path fill="none" stroke="black" d="M4071.98,-250.584C4075.02,-251.07 4078.02,-251.544 4080.98,-252 4319.83,-288.868 4379.37,-301.216 4619.98,-324 4930.99,-353.45 5301.24,-368.389 5471.22,-374.127"/>
<polygon fill="black" stroke="black" points="5481.39,-374.468 5471.24,-378.631 5476.39,-374.3 5471.39,-374.133 5471.39,-374.133 5471.39,-374.133 5476.39,-374.3 5471.54,-369.636 5481.39,-374.468 5481.39,-374.468"/>
</g>
<!-- 11&#45;&gt;49 -->
<g id="edge39" class="edge"><title>11&#45;&gt;49</title>
<path fill="none" stroke="black" d="M3937.01,-252.124C3906.89,-263.106 3867.96,-277.298 3838.02,-288.213"/>
<polygon fill="black" stroke="black" points="3828.24,-291.78 3836.09,-284.127 3832.94,-290.068 3837.64,-288.355 3837.64,-288.355 3837.64,-288.355 3832.94,-290.068 3839.18,-292.583 3828.24,-291.78 3828.24,-291.78"/>
</g>
<!-- 12 -->
<g id="node13" class="node"><title>12</title>
<polygon fill="none" stroke="black" points="6015.48,-252 5848.48,-252 5848.48,-216 6015.48,-216 6015.48,-252"/>
<text text-anchor="middle" x="5931.98" y="-230.3" font-family="Times New Roman,serif" font-size="14.00">hisim.components.demand</text>
</g>
<!-- 12&#45;&gt;0 -->
<g id="edge40" class="edge"><title>12&#45;&gt;0</title>
<path fill="none" stroke="black" d="M5910.39,-252.006C5897.94,-262.091 5882.19,-275.341 5868.98,-288 5853.31,-303.018 5855.78,-315.116 5835.98,-324 5814.19,-333.776 2599.22,-372.037 2216.15,-376.562"/>
<polygon fill="black" stroke="black" points="2206.14,-376.68 2216.09,-372.062 2211.14,-376.621 2216.14,-376.562 2216.14,-376.562 2216.14,-376.562 2211.14,-376.621 2216.2,-381.062 2206.14,-376.68 2206.14,-376.68"/>
</g>
<!-- 12&#45;&gt;1 -->
<g id="edge41" class="edge"><title>12&#45;&gt;1</title>
<path fill="none" stroke="black" d="M5848.28,-244.797C5821.11,-247.608 5790.8,-250.355 5762.98,-252 4868.4,-304.891 4639.56,-208.185 3746.98,-288 3734.57,-289.11 3721.41,-290.815 3708.76,-292.725"/>
<polygon fill="black" stroke="black" points="3698.74,-294.294 3707.92,-288.301 3703.68,-293.52 3708.62,-292.746 3708.62,-292.746 3708.62,-292.746 3703.68,-293.52 3709.32,-297.192 3698.74,-294.294 3698.74,-294.294"/>
</g>
<!-- 12&#45;&gt;8 -->
<g id="edge42" class="edge"><title>12&#45;&gt;8</title>
<path fill="none" stroke="black" d="M5882.58,-252.034C5854.09,-261.858 5818.09,-274.271 5788.11,-284.611"/>
<polygon fill="black" stroke="black" points="5778.6,-287.889 5786.59,-280.375 5783.33,-286.259 5788.05,-284.629 5788.05,-284.629 5788.05,-284.629 5783.33,-286.259 5789.52,-288.883 5778.6,-287.889 5778.6,-287.889"/>
</g>
<!-- 12&#45;&gt;40 -->
<g id="edge43" class="edge"><title>12&#45;&gt;40</title>
<path fill="none" stroke="black" d="M5925.52,-252.137C5916.49,-273.356 5897.87,-308.58 5868.98,-324 5778.69,-372.19 4204.85,-376.577 3869.5,-376.965"/>
<polygon fill="black" stroke="black" points="3859.02,-376.976 3869.01,-372.465 3864.02,-376.97 3869.02,-376.965 3869.02,-376.965 3869.02,-376.965 3864.02,-376.97 3869.02,-381.465 3859.02,-376.976 3859.02,-376.976"/>
</g>
<!-- 12&#45;&gt;47 -->
<g id="edge44" class="edge"><title>12&#45;&gt;47</title>
<path fill="none" stroke="black" d="M5932.32,-252.256C5931.72,-272.592 5927.4,-305.9 5906.98,-324 5871.1,-355.808 5747.03,-368.555 5658.68,-373.645"/>
<polygon fill="black" stroke="black" points="5648.63,-374.2 5658.37,-369.155 5653.63,-373.924 5658.62,-373.648 5658.62,-373.648 5658.62,-373.648 5653.63,-373.924 5658.87,-378.141 5648.63,-374.2 5648.63,-374.2"/>
</g>
<!-- 13 -->
<g id="node14" class="node"><title>13</title>
<polygon fill="none" stroke="black" points="5322.48,-252 5115.48,-252 5115.48,-216 5322.48,-216 5322.48,-252"/>
<text text-anchor="middle" x="5218.98" y="-230.3" font-family="Times New Roman,serif" font-size="14.00">hisim.components.district_heating</text>
</g>
<!-- 13&#45;&gt;0 -->
<g id="edge45" class="edge"><title>13&#45;&gt;0</title>
<path fill="none" stroke="black" d="M5115.25,-250.771C5112.12,-251.193 5109.03,-251.603 5105.98,-252 4815.12,-289.825 4742.64,-304.56 4449.98,-324 3989.79,-354.568 2474.82,-373.521 2216.57,-376.566"/>
<polygon fill="black" stroke="black" points="2206.23,-376.688 2216.18,-372.071 2211.23,-376.629 2216.23,-376.57 2216.23,-376.57 2216.23,-376.57 2211.23,-376.629 2216.28,-381.07 2206.23,-376.688 2206.23,-376.688"/>
</g>
<!-- 13&#45;&gt;1 -->
<g id="edge46" class="edge"><title>13&#45;&gt;1</title>
<path fill="none" stroke="black" d="M5115.28,-251.106C5112.15,-251.43 5109.04,-251.73 5105.98,-252 4504.1,-305.044 4348.55,-231.59 3746.98,-288 3734.58,-289.163 3721.42,-290.894 3708.76,-292.812"/>
<polygon fill="black" stroke="black" points="3698.75,-294.384 3707.93,-288.388 3703.69,-293.609 3708.63,-292.834 3708.63,-292.834 3708.63,-292.834 3703.69,-293.609 3709.32,-297.279 3698.75,-294.384 3698.75,-294.384"/>
</g>
<!-- 13&#45;&gt;40 -->
<g id="edge47" class="edge"><title>13&#45;&gt;40</title>
<path fill="none" stroke="black" d="M5141.77,-252.046C5045.6,-272.579 4876.01,-306.488 4728.98,-324 4407.14,-362.333 4018.68,-373.174 3869.49,-376.04"/>
<polygon fill="black" stroke="black" points="3859.16,-376.232 3869.08,-371.546 3864.16,-376.139 3869.16,-376.046 3869.16,-376.046 3869.16,-376.046 3864.16,-376.139 3869.25,-380.545 3859.16,-376.232 3859.16,-376.232"/>
</g>
<!-- 13&#45;&gt;47 -->
<g id="edge48" class="edge"><title>13&#45;&gt;47</title>
<path fill="none" stroke="black" d="M5260.72,-252.129C5324.32,-278.231 5445.34,-327.899 5514.03,-356.091"/>
<polygon fill="black" stroke="black" points="5523.37,-359.921 5512.41,-360.288 5518.74,-358.023 5514.11,-356.125 5514.11,-356.125 5514.11,-356.125 5518.74,-358.023 5515.82,-351.962 5523.37,-359.921 5523.37,-359.921"/>
</g>
<!-- 14 -->
<g id="node15" class="node"><title>14</title>
<polygon fill="none" stroke="black" points="3408.98,-180 3244.98,-180 3244.98,-144 3408.98,-144 3408.98,-180"/>
<text text-anchor="middle" x="3326.98" y="-158.3" font-family="Times New Roman,serif" font-size="14.00">hisim.components.dummy</text>
</g>
<!-- 14&#45;&gt;0 -->
<g id="edge49" class="edge"><title>14&#45;&gt;0</title>
<path fill="none" stroke="black" d="M3244.66,-171.979C3212.65,-175.1 3175.64,-178.253 3141.98,-180 3100.56,-182.149 185.13,-186.496 155.98,-216 122.244,-250.145 122.486,-289.617 155.98,-324 192.004,-360.98 1868.16,-374.738 2141.48,-376.738"/>
<polygon fill="black" stroke="black" points="2151.68,-376.811 2141.65,-381.239 2146.68,-376.775 2141.68,-376.739 2141.68,-376.739 2141.68,-376.739 2146.68,-376.775 2141.71,-372.239 2151.68,-376.811 2151.68,-376.811"/>
</g>
<!-- 14&#45;&gt;1 -->
<g id="edge50" class="edge"><title>14&#45;&gt;1</title>
<path fill="none" stroke="black" d="M3324.79,-180.002C3323.23,-200.089 3324.09,-233.151 3342.98,-252 3374.82,-283.758 3496.99,-296.725 3574.97,-301.843"/>
<polygon fill="black" stroke="black" points="3585.2,-302.486 3574.94,-306.349 3580.21,-302.172 3575.22,-301.858 3575.22,-301.858 3575.22,-301.858 3580.21,-302.172 3575.5,-297.367 3585.2,-302.486 3585.2,-302.486"/>
</g>
<!-- 14&#45;&gt;15 -->
<g id="edge51" class="edge"><title>14&#45;&gt;15</title>
<path fill="none" stroke="black" d="M3355.6,-180.124C3370.9,-189.276 3389.92,-200.658 3406.4,-210.515"/>
<polygon fill="black" stroke="black" points="3415.25,-215.81 3404.36,-214.538 3410.96,-213.243 3406.67,-210.676 3406.67,-210.676 3406.67,-210.676 3410.96,-213.243 3408.98,-206.814 3415.25,-215.81 3415.25,-215.81"/>
</g>
<!-- 14&#45;&gt;40 -->
<g id="edge52" class="edge"><title>14&#45;&gt;40</title>
<path fill="none" stroke="black" d="M3244.66,-171.968C3212.64,-175.088 3175.64,-178.243 3141.98,-180 3102.6,-182.056 330.686,-187.94 302.98,-216 291.738,-227.385 292.076,-240.291 302.98,-252 341.317,-293.167 1256.79,-321.402 1312.98,-324 2281.44,-368.782 3463.22,-375.772 3744.71,-376.821"/>
<polygon fill="black" stroke="black" points="3754.73,-376.857 3744.71,-381.321 3749.73,-376.839 3744.73,-376.821 3744.73,-376.821 3744.73,-376.821 3749.73,-376.839 3744.75,-372.321 3754.73,-376.857 3754.73,-376.857"/>
</g>
<!-- 14&#45;&gt;47 -->
<g id="edge53" class="edge"><title>14&#45;&gt;47</title>
<path fill="none" stroke="black" d="M3409.2,-168.013C3477,-171.944 3575.69,-177.202 3661.98,-180 3697.38,-181.148 6187.11,-190.778 6211.98,-216 6292.86,-298.029 5856.86,-349.828 5658.83,-368.818"/>
<polygon fill="black" stroke="black" points="5648.72,-369.779 5658.25,-364.353 5653.7,-369.306 5658.68,-368.833 5658.68,-368.833 5658.68,-368.833 5653.7,-369.306 5659.1,-373.312 5648.72,-369.779 5648.72,-369.779"/>
</g>
<!-- 14&#45;&gt;49 -->
<g id="edge54" class="edge"><title>14&#45;&gt;49</title>
<path fill="none" stroke="black" d="M3405.98,-180.053C3447.62,-189.583 3499.38,-202.285 3544.98,-216 3616.39,-237.477 3697.4,-267.85 3746.58,-286.978"/>
<polygon fill="black" stroke="black" points="3755.98,-290.648 3745.02,-291.203 3751.32,-288.83 3746.66,-287.011 3746.66,-287.011 3746.66,-287.011 3751.32,-288.83 3748.3,-282.819 3755.98,-290.648 3755.98,-290.648"/>
</g>
<!-- 15&#45;&gt;0 -->
<g id="edge55" class="edge"><title>15&#45;&gt;0</title>
<path fill="none" stroke="black" d="M3351.73,-245.355C3096.17,-274.043 2386.64,-353.689 2216.16,-372.826"/>
<polygon fill="black" stroke="black" points="2206.17,-373.948 2215.61,-368.36 2211.14,-373.39 2216.11,-372.832 2216.11,-372.832 2216.11,-372.832 2211.14,-373.39 2216.61,-377.304 2206.17,-373.948 2206.17,-373.948"/>
</g>
<!-- 15&#45;&gt;1 -->
<g id="edge56" class="edge"><title>15&#45;&gt;1</title>
<path fill="none" stroke="black" d="M3492.16,-252.034C3519.83,-261.815 3554.76,-274.164 3583.93,-284.476"/>
<polygon fill="black" stroke="black" points="3593.58,-287.889 3582.65,-288.799 3588.87,-286.223 3584.15,-284.556 3584.15,-284.556 3584.15,-284.556 3588.87,-286.223 3585.65,-280.313 3593.58,-287.889 3593.58,-287.889"/>
</g>
<!-- 15&#45;&gt;40 -->
<g id="edge57" class="edge"><title>15&#45;&gt;40</title>
<path fill="none" stroke="black" d="M3464.07,-252.052C3488.81,-272.187 3532.88,-305.297 3575.98,-324 3630.49,-347.65 3697,-361.483 3744.64,-369.049"/>
<polygon fill="black" stroke="black" points="3754.8,-370.615 3744.23,-373.54 3749.86,-369.854 3744.92,-369.093 3744.92,-369.093 3744.92,-369.093 3749.86,-369.854 3745.6,-364.645 3754.8,-370.615 3754.8,-370.615"/>
</g>
<!-- 15&#45;&gt;47 -->
<g id="edge58" class="edge"><title>15&#45;&gt;47</title>
<path fill="none" stroke="black" d="M3536.1,-246.309C3694.16,-265.3 4027.33,-303.527 4309.98,-324 4743.33,-355.39 5262.31,-370.023 5471.15,-374.968"/>
<polygon fill="black" stroke="black" points="5481.16,-375.203 5471.06,-379.467 5476.17,-375.086 5471.17,-374.968 5471.17,-374.968 5471.17,-374.968 5476.17,-375.086 5471.27,-370.47 5481.16,-375.203 5481.16,-375.203"/>
</g>
<!-- 15&#45;&gt;49 -->
<g id="edge59" class="edge"><title>15&#45;&gt;49</title>
<path fill="none" stroke="black" d="M3528.67,-252.034C3597.04,-265.788 3690.66,-284.619 3745.88,-295.727"/>
<polygon fill="black" stroke="black" points="3755.73,-297.709 3745.04,-300.148 3750.83,-296.723 3745.93,-295.737 3745.93,-295.737 3745.93,-295.737 3750.83,-296.723 3746.82,-291.325 3755.73,-297.709 3755.73,-297.709"/>
</g>
<!-- 16 -->
<g id="node17" class="node"><title>16</title>
<polygon fill="none" stroke="black" points="7023.48,-180 6790.48,-180 6790.48,-144 7023.48,-144 7023.48,-180"/>
<text text-anchor="middle" x="6906.98" y="-158.3" font-family="Times New Roman,serif" font-size="14.00">hisim.components.extended_controller</text>
</g>
<!-- 16&#45;&gt;0 -->
<g id="edge60" class="edge"><title>16&#45;&gt;0</title>
<path fill="none" stroke="black" d="M6790.12,-165.481C6609.23,-169.228 6250.49,-176.287 5945.98,-180 5908.66,-180.455 597.286,-189.517 570.98,-216 523.791,-263.506 574.195,-280.677 941.98,-324 1413.13,-379.499 1991.31,-378.697 2141.79,-377.42"/>
<polygon fill="black" stroke="black" points="2151.88,-377.328 2141.92,-381.919 2146.88,-377.374 2141.88,-377.42 2141.88,-377.42 2141.88,-377.42 2146.88,-377.374 2141.83,-372.92 2151.88,-377.328 2151.88,-377.328"/>
</g>
<!-- 16&#45;&gt;1 -->
<g id="edge61" class="edge"><title>16&#45;&gt;1</title>
<path fill="none" stroke="black" d="M6790.11,-165.075C6609.21,-168.285 6250.46,-174.645 5945.98,-180 5831.59,-182.012 3998.09,-188.743 3886.98,-216 3852.23,-224.524 3848.2,-238.714 3814.98,-252 3780.49,-265.796 3740.94,-278.156 3708.37,-287.463"/>
<polygon fill="black" stroke="black" points="3698.5,-290.252 3706.9,-283.202 3703.32,-288.892 3708.13,-287.533 3708.13,-287.533 3708.13,-287.533 3703.32,-288.892 3709.35,-291.863 3698.5,-290.252 3698.5,-290.252"/>
</g>
<!-- 16&#45;&gt;2 -->
<g id="edge62" class="edge"><title>16&#45;&gt;2</title>
<path fill="none" stroke="black" d="M6906.98,-180.303C6906.98,-188.017 6906.98,-197.288 6906.98,-205.888"/>
<polygon fill="black" stroke="black" points="6906.98,-215.896 6902.48,-205.896 6906.98,-210.896 6906.98,-205.896 6906.98,-205.896 6906.98,-205.896 6906.98,-210.896 6911.48,-205.896 6906.98,-215.896 6906.98,-215.896"/>
</g>
<!-- 16&#45;&gt;7 -->
<g id="edge63" class="edge"><title>16&#45;&gt;7</title>
<path fill="none" stroke="black" d="M6790.33,-167.086C6593.86,-174.348 6184.55,-191.12 5838.98,-216 5814.77,-217.743 5788.75,-219.985 5764.24,-222.265"/>
<polygon fill="black" stroke="black" points="5754.2,-223.208 5763.73,-217.792 5759.18,-222.74 5764.15,-222.273 5764.15,-222.273 5764.15,-222.273 5759.18,-222.74 5764.58,-226.753 5754.2,-223.208 5754.2,-223.208"/>
</g>
<!-- 16&#45;&gt;8 -->
<g id="edge64" class="edge"><title>16&#45;&gt;8</title>
<path fill="none" stroke="black" d="M6940.82,-180.039C6954.36,-188.784 6968.5,-200.825 6975.98,-216 6983.05,-230.352 6987.05,-240.449 6975.98,-252 6956.38,-272.447 6136.66,-294.856 5837.13,-302.376"/>
<polygon fill="black" stroke="black" points="5827.12,-302.627 5837.01,-297.878 5832.12,-302.502 5837.12,-302.377 5837.12,-302.377 5837.12,-302.377 5832.12,-302.502 5837.23,-306.875 5827.12,-302.627 5827.12,-302.627"/>
</g>
<!-- 16&#45;&gt;40 -->
<g id="edge65" class="edge"><title>16&#45;&gt;40</title>
<path fill="none" stroke="black" d="M6952.53,-180.023C6968.23,-188.342 6984.09,-200.075 6992.98,-216 7000.78,-229.97 7002.98,-239.506 6992.98,-252 6947.45,-308.917 6903.81,-270.798 6832.98,-288 6771.38,-302.959 6757.77,-315.358 6694.98,-324 6550.29,-343.912 4276.76,-371.481 3869.26,-376.275"/>
<polygon fill="black" stroke="black" points="3859.15,-376.394 3869.09,-371.777 3864.15,-376.335 3869.15,-376.276 3869.15,-376.276 3869.15,-376.276 3864.15,-376.335 3869.2,-380.776 3859.15,-376.394 3859.15,-376.394"/>
</g>
<!-- 16&#45;&gt;47 -->
<g id="edge66" class="edge"><title>16&#45;&gt;47</title>
<path fill="none" stroke="black" d="M7023.91,-165.898C7121.39,-170.661 7250.48,-183.183 7289.98,-216 7327.8,-247.423 7348.22,-288.708 7313.98,-324 7284.93,-353.939 6017.58,-371.526 5658.75,-375.911"/>
<polygon fill="black" stroke="black" points="5648.66,-376.034 5658.6,-371.413 5653.66,-375.973 5658.66,-375.912 5658.66,-375.912 5658.66,-375.912 5653.66,-375.973 5658.71,-380.412 5648.66,-376.034 5648.66,-376.034"/>
</g>
<!-- 17 -->
<g id="node18" class="node"><title>17</title>
<polygon fill="none" stroke="black" points="3058.48,-252 2837.48,-252 2837.48,-216 3058.48,-216 3058.48,-252"/>
<text text-anchor="middle" x="2947.98" y="-230.3" font-family="Times New Roman,serif" font-size="14.00">hisim.components.extended_storage</text>
</g>
<!-- 17&#45;&gt;0 -->
<g id="edge67" class="edge"><title>17&#45;&gt;0</title>
<path fill="none" stroke="black" d="M2837.23,-247.035C2821.05,-248.737 2804.59,-250.438 2788.98,-252 2617.54,-269.159 2570.52,-247.781 2402.98,-288 2334.18,-304.517 2258.54,-338.044 2215.11,-358.904"/>
<polygon fill="black" stroke="black" points="2206.09,-363.279 2213.12,-354.867 2210.59,-361.097 2215.08,-358.916 2215.08,-358.916 2215.08,-358.916 2210.59,-361.097 2217.05,-362.965 2206.09,-363.279 2206.09,-363.279"/>
</g>
<!-- 17&#45;&gt;1 -->
<g id="edge68" class="edge"><title>17&#45;&gt;1</title>
<path fill="none" stroke="black" d="M3058.49,-250.979C3061.35,-251.33 3064.18,-251.671 3066.98,-252 3250.48,-273.551 3467.79,-291.542 3575.12,-299.928"/>
<polygon fill="black" stroke="black" points="3585.16,-300.71 3574.84,-304.42 3580.17,-300.322 3575.19,-299.934 3575.19,-299.934 3575.19,-299.934 3580.17,-300.322 3575.54,-295.447 3585.16,-300.71 3585.16,-300.71"/>
</g>
<!-- 17&#45;&gt;8 -->
<g id="edge69" class="edge"><title>17&#45;&gt;8</title>
<path fill="none" stroke="black" d="M3058.78,-251.28C3061.54,-251.54 3064.28,-251.781 3066.98,-252 3575.68,-293.245 5187.48,-302.77 5620.82,-304.609"/>
<polygon fill="black" stroke="black" points="5630.84,-304.651 5620.82,-309.109 5625.84,-304.63 5620.84,-304.609 5620.84,-304.609 5620.84,-304.609 5625.84,-304.63 5620.86,-300.109 5630.84,-304.651 5630.84,-304.651"/>
</g>
<!-- 17&#45;&gt;40 -->
<g id="edge70" class="edge"><title>17&#45;&gt;40</title>
<path fill="none" stroke="black" d="M3016.87,-252.08C3098.02,-271.705 3237.11,-303.795 3357.98,-324 3495.24,-346.944 3657.73,-363.528 3744.67,-371.557"/>
<polygon fill="black" stroke="black" points="3754.9,-372.494 3744.53,-376.063 3749.92,-372.038 3744.94,-371.581 3744.94,-371.581 3744.94,-371.581 3749.92,-372.038 3745.35,-367.1 3754.9,-372.494 3754.9,-372.494"/>
</g>
<!-- 18 -->
<g id="node19" class="node"><title>18</title>
<polygon fill="none" stroke="black" points="1021.98,-252 839.98,-252 839.98,-216 1021.98,-216 1021.98,-252"/>
<text text-anchor="middle" x="930.98" y="-230.3" font-family="Times New Roman,serif" font-size="14.00">hisim.components.gas_heater</text>
</g>
<!-- 18&#45;&gt;0 -->
<g id="edge71" class="edge"><title>18&#45;&gt;0</title>
<path fill="none" stroke="black" d="M999.902,-252.015C1085.77,-272.515 1237.27,-306.391 1368.98,-324 1665.29,-363.613 2026.7,-373.968 2141.87,-376.354"/>
<polygon fill="black" stroke="black" points="2151.93,-376.555 2141.84,-380.854 2146.93,-376.455 2141.93,-376.355 2141.93,-376.355 2141.93,-376.355 2146.93,-376.455 2142.02,-371.856 2151.93,-376.555 2151.93,-376.555"/>
</g>
<!-- 18&#45;&gt;1 -->
<g id="edge72" class="edge"><title>18&#45;&gt;1</title>
<path fill="none" stroke="black" d="M1022.19,-251.079C1025.15,-251.417 1028.09,-251.726 1030.98,-252 1290.62,-276.568 3192.76,-299.788 3575.13,-304.236"/>
<polygon fill="black" stroke="black" points="3585.21,-304.353 3575.16,-308.737 3580.21,-304.295 3575.21,-304.237 3575.21,-304.237 3575.21,-304.237 3580.21,-304.295 3575.26,-299.737 3585.21,-304.353 3585.21,-304.353"/>
</g>
<!-- 18&#45;&gt;40 -->
<g id="edge73" class="edge"><title>18&#45;&gt;40</title>
<path fill="none" stroke="black" d="M1022.19,-251.052C1025.15,-251.399 1028.09,-251.716 1030.98,-252 1177.44,-266.368 2219.02,-231.671 2354.98,-288 2376.47,-296.905 2371.53,-314.985 2392.98,-324 2518.49,-376.756 3486.89,-377.887 3744.31,-377.242"/>
<polygon fill="black" stroke="black" points="3754.6,-377.215 3744.61,-381.742 3749.6,-377.228 3744.6,-377.242 3744.6,-377.242 3744.6,-377.242 3749.6,-377.228 3744.59,-372.742 3754.6,-377.215 3754.6,-377.215"/>
</g>
<!-- 19 -->
<g id="node20" class="node"><title>19</title>
<polygon fill="none" stroke="black" points="2540.98,-252 2284.98,-252 2284.98,-216 2540.98,-216 2540.98,-252"/>
<text text-anchor="middle" x="2412.98" y="-230.3" font-family="Times New Roman,serif" font-size="14.00">hisim.components.genericsurpluscontroller</text>
</g>
<!-- 19&#45;&gt;0 -->
<g id="edge74" class="edge"><title>19&#45;&gt;0</title>
<path fill="none" stroke="black" d="M2328.07,-252.115C2301.2,-260.143 2272.43,-271.666 2248.98,-288 2225.34,-304.468 2205.83,-331.249 2193.46,-351.138"/>
<polygon fill="black" stroke="black" points="2188.29,-359.729 2189.59,-348.84 2190.87,-355.444 2193.45,-351.16 2193.45,-351.16 2193.45,-351.16 2190.87,-355.444 2197.3,-353.479 2188.29,-359.729 2188.29,-359.729"/>
</g>
<!-- 19&#45;&gt;1 -->
<g id="edge75" class="edge"><title>19&#45;&gt;1</title>
<path fill="none" stroke="black" d="M2541.3,-251.218C2544.22,-251.492 2547.11,-251.753 2549.98,-252 2937.53,-285.403 3404.41,-299.291 3575.23,-303.502"/>
<polygon fill="black" stroke="black" points="3585.33,-303.748 3575.22,-308.003 3580.33,-303.626 3575.33,-303.504 3575.33,-303.504 3575.33,-303.504 3580.33,-303.626 3575.44,-299.006 3585.33,-303.748 3585.33,-303.748"/>
</g>
<!-- 19&#45;&gt;40 -->
<g id="edge76" class="edge"><title>19&#45;&gt;40</title>
<path fill="none" stroke="black" d="M2525.37,-252.021C2601.59,-264.108 2691.41,-279.622 2707.98,-288 2728.74,-298.496 2724.59,-314.852 2745.98,-324 2837.64,-363.201 3531.28,-373.991 3744.69,-376.398"/>
<polygon fill="black" stroke="black" points="3754.79,-376.51 3744.74,-380.899 3749.79,-376.454 3744.79,-376.399 3744.79,-376.399 3744.79,-376.399 3749.79,-376.454 3744.84,-371.899 3754.79,-376.51 3754.79,-376.51"/>
</g>
<!-- 20 -->
<g id="node21" class="node"><title>20</title>
<polygon fill="none" stroke="black" points="3133.48,-180 2948.48,-180 2948.48,-144 3133.48,-144 3133.48,-180"/>
<text text-anchor="middle" x="3040.98" y="-158.3" font-family="Times New Roman,serif" font-size="14.00">hisim.components.heat_pump</text>
</g>
<!-- 20&#45;&gt;0 -->
<g id="edge77" class="edge"><title>20&#45;&gt;0</title>
<path fill="none" stroke="black" d="M2948.39,-162.913C2456.38,-162.665 168.753,-164.297 117.98,-216 84.3478,-250.247 84.4779,-289.625 117.98,-324 154.728,-361.705 1865.9,-374.878 2141.65,-376.757"/>
<polygon fill="black" stroke="black" points="2151.93,-376.827 2141.9,-381.259 2146.93,-376.793 2141.93,-376.759 2141.93,-376.759 2141.93,-376.759 2146.93,-376.793 2141.96,-372.259 2151.93,-376.827 2151.93,-376.827"/>
</g>
<!-- 20&#45;&gt;1 -->
<g id="edge78" class="edge"><title>20&#45;&gt;1</title>
<path fill="none" stroke="black" d="M3128.98,-180.055C3161.23,-188.315 3197.32,-199.999 3227.98,-216 3250.38,-227.689 3248.85,-241.836 3271.98,-252 3325.02,-275.306 3484.07,-291.884 3575.45,-299.782"/>
<polygon fill="black" stroke="black" points="3585.43,-300.634 3575.08,-304.267 3580.45,-300.209 3575.46,-299.784 3575.46,-299.784 3575.46,-299.784 3580.45,-300.209 3575.85,-295.3 3585.43,-300.634 3585.43,-300.634"/>
</g>
<!-- 20&#45;&gt;8 -->
<g id="edge79" class="edge"><title>20&#45;&gt;8</title>
<path fill="none" stroke="black" d="M3133.63,-172.464C3165.98,-175.4 3202.55,-178.307 3235.98,-180 3271.04,-181.775 5738.34,-191.004 5762.98,-216 5780.05,-233.315 5766.31,-260.091 5751.51,-279.753"/>
<polygon fill="black" stroke="black" points="5745.19,-287.695 5747.89,-277.068 5748.3,-283.783 5751.41,-279.87 5751.41,-279.87 5751.41,-279.87 5748.3,-283.783 5754.93,-282.672 5745.19,-287.695 5745.19,-287.695"/>
</g>
<!-- 20&#45;&gt;17 -->
<g id="edge80" class="edge"><title>20&#45;&gt;17</title>
<path fill="none" stroke="black" d="M3017.99,-180.303C3006.17,-189.204 2991.59,-200.177 2978.8,-209.801"/>
<polygon fill="black" stroke="black" points="2970.7,-215.896 2975.99,-206.287 2974.7,-212.889 2978.69,-209.882 2978.69,-209.882 2978.69,-209.882 2974.7,-212.889 2981.4,-213.477 2970.7,-215.896 2970.7,-215.896"/>
</g>
<!-- 20&#45;&gt;40 -->
<g id="edge81" class="edge"><title>20&#45;&gt;40</title>
<path fill="none" stroke="black" d="M2948.48,-163.022C2474.52,-163.349 338.539,-167.516 290.98,-216 279.776,-227.422 281.138,-239.385 290.98,-252 371.869,-355.689 447.6,-306.808 577.98,-324 740.765,-345.465 3310.03,-372.031 3744.73,-376.384"/>
<polygon fill="black" stroke="black" points="3754.9,-376.486 3744.86,-380.885 3749.9,-376.436 3744.9,-376.386 3744.9,-376.386 3744.9,-376.386 3749.9,-376.436 3744.95,-371.886 3754.9,-376.486 3754.9,-376.486"/>
</g>
<!-- 20&#45;&gt;49 -->
<g id="edge82" class="edge"><title>20&#45;&gt;49</title>
<path fill="none" stroke="black" d="M3130.01,-180.009C3171.3,-188.948 3220.69,-201.151 3263.98,-216 3300.48,-228.52 3305.72,-241.966 3342.98,-252 3499.95,-294.277 3546.19,-264.03 3706.98,-288 3719.66,-289.891 3733.32,-292.407 3745.9,-294.922"/>
<polygon fill="black" stroke="black" points="3755.72,-296.927 3745.02,-299.335 3750.82,-295.926 3745.92,-294.926 3745.92,-294.926 3745.92,-294.926 3750.82,-295.926 3746.82,-290.517 3755.72,-296.927 3755.72,-296.927"/>
</g>
<!-- 21 -->
<g id="node22" class="node"><title>21</title>
<polygon fill="none" stroke="black" points="7280.98,-252 7060.98,-252 7060.98,-216 7280.98,-216 7280.98,-252"/>
<text text-anchor="middle" x="7170.98" y="-230.3" font-family="Times New Roman,serif" font-size="14.00">hisim.components.heat_pump_hplib</text>
</g>
<!-- 21&#45;&gt;1 -->
<g id="edge83" class="edge"><title>21&#45;&gt;1</title>
<path fill="none" stroke="black" d="M7060.73,-246.079C7033.09,-248.453 7003.47,-250.65 6975.98,-252 6259.24,-287.187 4461.94,-226.484 3746.98,-288 3734.57,-289.068 3721.4,-290.754 3708.75,-292.657"/>
<polygon fill="black" stroke="black" points="3698.73,-294.223 3707.92,-288.233 3703.67,-293.451 3708.61,-292.679 3708.61,-292.679 3708.61,-292.679 3703.67,-293.451 3709.31,-297.125 3698.73,-294.223 3698.73,-294.223"/>
</g>
<!-- 38 -->
<g id="node39" class="node"><title>38</title>
<polygon fill="none" stroke="black" points="7070.48,-324 6885.48,-324 6885.48,-288 7070.48,-288 7070.48,-324"/>
<text text-anchor="middle" x="6977.98" y="-302.3" font-family="Times New Roman,serif" font-size="14.00">hisim.inputs.heat_pump_hplib</text>
</g>
<!-- 21&#45;&gt;38 -->
<g id="edge84" class="edge"><title>21&#45;&gt;38</title>
<path fill="none" stroke="black" d="M7123.77,-252.124C7096.91,-261.863 7063.1,-274.128 7034.8,-284.392"/>
<polygon fill="black" stroke="black" points="7025.04,-287.932 7032.91,-280.292 7029.74,-286.227 7034.44,-284.522 7034.44,-284.522 7034.44,-284.522 7029.74,-286.227 7035.97,-288.752 7025.04,-287.932 7025.04,-287.932"/>
</g>
<!-- 39 -->
<g id="node40" class="node"><title>39</title>
<polygon fill="none" stroke="black" points="7304.98,-324 7088.98,-324 7088.98,-288 7304.98,-288 7304.98,-324"/>
<text text-anchor="middle" x="7196.98" y="-302.3" font-family="Times New Roman,serif" font-size="14.00">hisim.inputs.heat_pump_hplib.hplib</text>
</g>
<!-- 21&#45;&gt;39 -->
<g id="edge85" class="edge"><title>21&#45;&gt;39</title>
<path fill="none" stroke="black" d="M7177.41,-252.303C7180.34,-260.187 7183.87,-269.696 7187.12,-278.454"/>
<polygon fill="black" stroke="black" points="7190.63,-287.896 7182.93,-280.088 7188.89,-283.209 7187.14,-278.521 7187.14,-278.521 7187.14,-278.521 7188.89,-283.209 7191.36,-276.955 7190.63,-287.896 7190.63,-287.896"/>
</g>
<!-- 21&#45;&gt;40 -->
<g id="edge86" class="edge"><title>21&#45;&gt;40</title>
<path fill="none" stroke="black" d="M7061.53,-252.004C6985.16,-264.335 6893.96,-280.168 6876.98,-288 6854.03,-298.58 6856.7,-315.298 6832.98,-324 6760.88,-350.45 4295.38,-372.803 3869.37,-376.473"/>
<polygon fill="black" stroke="black" points="3859.11,-376.561 3869.07,-371.975 3864.11,-376.518 3869.11,-376.475 3869.11,-376.475 3869.11,-376.475 3864.11,-376.518 3869.15,-380.975 3859.11,-376.561 3859.11,-376.561"/>
</g>
<!-- 22 -->
<g id="node23" class="node"><title>22</title>
<polygon fill="none" stroke="black" points="5936.98,-180 5702.98,-180 5702.98,-144 5936.98,-144 5936.98,-180"/>
<text text-anchor="middle" x="5819.98" y="-158.3" font-family="Times New Roman,serif" font-size="14.00">hisim.components.hydrogen_generator</text>
</g>
<!-- 22&#45;&gt;0 -->
<g id="edge87" class="edge"><title>22&#45;&gt;0</title>
<path fill="none" stroke="black" d="M5702.66,-179.326C5699.74,-179.572 5696.84,-179.798 5693.98,-180 5622.55,-185.048 588.441,-165.186 537.98,-216 504.157,-250.059 504.591,-289.515 537.98,-324 595.617,-383.528 1902.68,-378.641 2141.65,-377.246"/>
<polygon fill="black" stroke="black" points="2151.9,-377.184 2141.93,-381.744 2146.9,-377.214 2141.9,-377.244 2141.9,-377.244 2141.9,-377.244 2146.9,-377.214 2141.87,-372.744 2151.9,-377.184 2151.9,-377.184"/>
</g>
<!-- 22&#45;&gt;1 -->
<g id="edge88" class="edge"><title>22&#45;&gt;1</title>
<path fill="none" stroke="black" d="M5702.66,-179.278C5699.74,-179.538 5696.84,-179.78 5693.98,-180 5490.1,-195.696 4054.03,-173.67 3853.98,-216 3790.81,-229.367 3722.82,-261.378 3681.33,-283.133"/>
<polygon fill="black" stroke="black" points="3672.38,-287.881 3679.11,-279.218 3676.8,-285.537 3681.22,-283.193 3681.22,-283.193 3681.22,-283.193 3676.8,-285.537 3683.33,-287.168 3672.38,-287.881 3672.38,-287.881"/>
</g>
<!-- 22&#45;&gt;2 -->
<g id="edge89" class="edge"><title>22&#45;&gt;2</title>
<path fill="none" stroke="black" d="M5937.21,-162.554C6126.55,-163.306 6510.98,-170.937 6832.98,-216 6834.45,-216.206 6835.93,-216.426 6837.42,-216.659"/>
<polygon fill="black" stroke="black" points="6847.37,-218.371 6836.75,-221.11 6842.44,-217.523 6837.52,-216.675 6837.52,-216.675 6837.52,-216.675 6842.44,-217.523 6838.28,-212.24 6847.37,-218.371 6847.37,-218.371"/>
</g>
<!-- 22&#45;&gt;7 -->
<g id="edge90" class="edge"><title>22&#45;&gt;7</title>
<path fill="none" stroke="black" d="M5780.59,-180.124C5758.59,-189.693 5730.97,-201.7 5707.62,-211.852"/>
<polygon fill="black" stroke="black" points="5698.24,-215.932 5705.61,-207.818 5702.82,-213.938 5707.41,-211.944 5707.41,-211.944 5707.41,-211.944 5702.82,-213.938 5709.2,-216.071 5698.24,-215.932 5698.24,-215.932"/>
</g>
<!-- 22&#45;&gt;8 -->
<g id="edge91" class="edge"><title>22&#45;&gt;8</title>
<path fill="none" stroke="black" d="M5818.59,-180.04C5816.35,-198.979 5810.59,-229.815 5795.98,-252 5788.37,-263.548 5777.42,-273.714 5766.57,-281.974"/>
<polygon fill="black" stroke="black" points="5758.35,-287.909 5763.82,-278.407 5762.4,-284.983 5766.45,-282.056 5766.45,-282.056 5766.45,-282.056 5762.4,-284.983 5769.09,-285.705 5758.35,-287.909 5758.35,-287.909"/>
</g>
<!-- 22&#45;&gt;40 -->
<g id="edge92" class="edge"><title>22&#45;&gt;40</title>
<path fill="none" stroke="black" d="M5937.44,-165.361C6183.77,-170.887 6734.08,-186.484 6761.98,-216 6772.97,-227.627 6770.15,-238.242 6761.98,-252 6727.87,-309.464 6694.58,-306.881 6629.98,-324 6560.96,-342.291 4278,-371.204 3869.29,-376.24"/>
<polygon fill="black" stroke="black" points="3859.14,-376.365 3869.09,-371.742 3864.14,-376.303 3869.14,-376.241 3869.14,-376.241 3869.14,-376.241 3864.14,-376.303 3869.2,-380.741 3859.14,-376.365 3859.14,-376.365"/>
</g>
<!-- 23 -->
<g id="node24" class="node"><title>23</title>
<polygon fill="none" stroke="black" points="4273.98,-252 4089.98,-252 4089.98,-216 4273.98,-216 4273.98,-252"/>
<text text-anchor="middle" x="4181.98" y="-230.3" font-family="Times New Roman,serif" font-size="14.00">hisim.components.occupancy</text>
</g>
<!-- 23&#45;&gt;0 -->
<g id="edge93" class="edge"><title>23&#45;&gt;0</title>
<path fill="none" stroke="black" d="M4089.74,-251.307C4020.02,-264.005 3933.71,-280.664 3917.98,-288 3894.77,-298.827 3897.01,-315.145 3872.98,-324 3712.72,-383.047 2449.72,-378.584 2216.08,-377.242"/>
<polygon fill="black" stroke="black" points="2206.05,-377.183 2216.07,-372.742 2211.05,-377.213 2216.05,-377.242 2216.05,-377.242 2216.05,-377.242 2211.05,-377.213 2216.02,-381.742 2206.05,-377.183 2206.05,-377.183"/>
</g>
<!-- 23&#45;&gt;1 -->
<g id="edge94" class="edge"><title>23&#45;&gt;1</title>
<path fill="none" stroke="black" d="M4089.82,-250.745C4086.84,-251.179 4083.89,-251.599 4080.98,-252 3933.08,-272.4 3894.95,-268.062 3746.98,-288 3734.56,-289.673 3721.35,-291.654 3708.63,-293.662"/>
<polygon fill="black" stroke="black" points="3698.57,-295.272 3707.73,-289.249 3703.51,-294.482 3708.45,-293.692 3708.45,-293.692 3708.45,-293.692 3703.51,-294.482 3709.16,-298.136 3698.57,-295.272 3698.57,-295.272"/>
</g>
<!-- 23&#45;&gt;8 -->
<g id="edge95" class="edge"><title>23&#45;&gt;8</title>
<path fill="none" stroke="black" d="M4274.11,-251.015C4277.1,-251.372 4280.06,-251.702 4282.98,-252 4780.96,-302.818 5379.79,-306.636 5620.76,-305.832"/>
<polygon fill="black" stroke="black" points="5630.93,-305.795 5620.94,-310.332 5625.93,-305.813 5620.93,-305.832 5620.93,-305.832 5620.93,-305.832 5625.93,-305.813 5620.91,-301.332 5630.93,-305.795 5630.93,-305.795"/>
</g>
<!-- 23&#45;&gt;40 -->
<g id="edge96" class="edge"><title>23&#45;&gt;40</title>
<path fill="none" stroke="black" d="M4136.75,-252.129C4067.67,-278.284 3936.11,-328.102 3861.74,-356.263"/>
<polygon fill="black" stroke="black" points="3852.08,-359.921 3859.84,-352.172 3856.76,-358.151 3861.43,-356.38 3861.43,-356.38 3861.43,-356.38 3856.76,-358.151 3863.03,-360.588 3852.08,-359.921 3852.08,-359.921"/>
</g>
<!-- 23&#45;&gt;49 -->
<g id="edge97" class="edge"><title>23&#45;&gt;49</title>
<path fill="none" stroke="black" d="M4089.72,-250.771C4029.88,-261.103 3950.26,-275.046 3879.98,-288 3866.44,-290.495 3851.76,-293.295 3838.33,-295.892"/>
<polygon fill="black" stroke="black" points="3828.35,-297.83 3837.31,-291.507 3833.25,-296.877 3838.16,-295.924 3838.16,-295.924 3838.16,-295.924 3833.25,-296.877 3839.02,-300.342 3828.35,-297.83 3828.35,-297.83"/>
</g>
<!-- 24 -->
<g id="node25" class="node"><title>24</title>
<polygon fill="none" stroke="black" points="2266.98,-252 2090.98,-252 2090.98,-216 2266.98,-216 2266.98,-252"/>
<text text-anchor="middle" x="2178.98" y="-230.3" font-family="Times New Roman,serif" font-size="14.00">hisim.components.oil_heater</text>
</g>
<!-- 24&#45;&gt;0 -->
<g id="edge98" class="edge"><title>24&#45;&gt;0</title>
<path fill="none" stroke="black" d="M2178.98,-252.129C2178.98,-276.33 2178.98,-320.789 2178.98,-349.607"/>
<polygon fill="black" stroke="black" points="2178.98,-359.811 2174.48,-349.811 2178.98,-354.811 2178.98,-349.811 2178.98,-349.811 2178.98,-349.811 2178.98,-354.811 2183.48,-349.811 2178.98,-359.811 2178.98,-359.811"/>
</g>
<!-- 24&#45;&gt;1 -->
<g id="edge99" class="edge"><title>24&#45;&gt;1</title>
<path fill="none" stroke="black" d="M2267.2,-250.98C2270.16,-251.35 2273.09,-251.692 2275.98,-252 2772.71,-304.921 3376.06,-306.647 3574.9,-305.588"/>
<polygon fill="black" stroke="black" points="3585.18,-305.529 3575.21,-310.087 3580.18,-305.558 3575.18,-305.587 3575.18,-305.587 3575.18,-305.587 3580.18,-305.558 3575.15,-301.087 3585.18,-305.529 3585.18,-305.529"/>
</g>
<!-- 24&#45;&gt;40 -->
<g id="edge100" class="edge"><title>24&#45;&gt;40</title>
<path fill="none" stroke="black" d="M2267.22,-250.773C2270.17,-251.202 2273.1,-251.613 2275.98,-252 2445.43,-274.775 2499.19,-227.183 2658.98,-288 2684.24,-297.613 2682.51,-314.965 2707.98,-324 2805.57,-358.62 3526.22,-372.616 3744.5,-376.089"/>
<polygon fill="black" stroke="black" points="3754.82,-376.251 3744.75,-380.593 3749.82,-376.172 3744.82,-376.093 3744.82,-376.093 3744.82,-376.093 3749.82,-376.172 3744.89,-371.594 3754.82,-376.251 3754.82,-376.251"/>
</g>
<!-- 25 -->
<g id="node26" class="node"><title>25</title>
<polygon fill="none" stroke="black" points="3219.48,-252 3076.48,-252 3076.48,-216 3219.48,-216 3219.48,-252"/>
<text text-anchor="middle" x="3147.98" y="-230.3" font-family="Times New Roman,serif" font-size="14.00">hisim.components.pvs</text>
</g>
<!-- 25&#45;&gt;0 -->
<g id="edge101" class="edge"><title>25&#45;&gt;0</title>
<path fill="none" stroke="black" d="M3076.48,-250.278C3073.27,-250.878 3070.09,-251.455 3066.98,-252 2738.79,-309.473 2338.72,-358.212 2216.32,-372.653"/>
<polygon fill="black" stroke="black" points="2206.34,-373.828 2215.74,-368.191 2211.3,-373.244 2216.27,-372.66 2216.27,-372.66 2216.27,-372.66 2211.3,-373.244 2216.79,-377.129 2206.34,-373.828 2206.34,-373.828"/>
</g>
<!-- 25&#45;&gt;1 -->
<g id="edge102" class="edge"><title>25&#45;&gt;1</title>
<path fill="none" stroke="black" d="M3219.71,-249.547C3224.53,-250.412 3229.32,-251.238 3233.98,-252 3353.8,-271.603 3494.38,-288.54 3575.33,-297.709"/>
<polygon fill="black" stroke="black" points="3585.38,-298.843 3574.94,-302.194 3580.41,-298.283 3575.44,-297.722 3575.44,-297.722 3575.44,-297.722 3580.41,-298.283 3575.95,-293.251 3585.38,-298.843 3585.38,-298.843"/>
</g>
<!-- 25&#45;&gt;40 -->
<g id="edge103" class="edge"><title>25&#45;&gt;40</title>
<path fill="none" stroke="black" d="M3212.47,-252.052C3285.01,-270.932 3406.49,-301.65 3511.98,-324 3591.98,-340.95 3684.93,-357.063 3744.79,-366.979"/>
<polygon fill="black" stroke="black" points="3754.83,-368.636 3744.23,-371.448 3749.9,-367.822 3744.97,-367.008 3744.97,-367.008 3744.97,-367.008 3749.9,-367.822 3745.7,-362.568 3754.83,-368.636 3754.83,-368.636"/>
</g>
<!-- 25&#45;&gt;49 -->
<g id="edge104" class="edge"><title>25&#45;&gt;49</title>
<path fill="none" stroke="black" d="M3219.7,-245.499C3236.81,-247.819 3255.02,-250.137 3271.98,-252 3464.81,-273.182 3514.88,-260.933 3706.98,-288 3719.68,-289.789 3733.34,-292.271 3745.92,-294.786"/>
<polygon fill="black" stroke="black" points="3755.74,-296.798 3745.04,-299.199 3750.84,-295.794 3745.94,-294.79 3745.94,-294.79 3745.94,-294.79 3750.84,-295.794 3746.84,-290.382 3755.74,-296.798 3755.74,-296.798"/>
</g>
<!-- 26 -->
<g id="node27" class="node"><title>26</title>
<polygon fill="none" stroke="black" points="2780.48,-252 2559.48,-252 2559.48,-216 2780.48,-216 2780.48,-252"/>
<text text-anchor="middle" x="2669.98" y="-230.3" font-family="Times New Roman,serif" font-size="14.00">hisim.components.random_numbers</text>
</g>
<!-- 26&#45;&gt;0 -->
<g id="edge105" class="edge"><title>26&#45;&gt;0</title>
<path fill="none" stroke="black" d="M2559.48,-250.672C2556.28,-251.12 2553.11,-251.564 2549.98,-252 2433.57,-268.243 2395.18,-239.795 2287.98,-288 2265.56,-298.083 2264.96,-308.371 2245.98,-324 2234.1,-333.787 2220.83,-344.352 2209.26,-353.454"/>
<polygon fill="black" stroke="black" points="2201.18,-359.791 2206.28,-350.079 2205.12,-356.705 2209.05,-353.62 2209.05,-353.62 2209.05,-353.62 2205.12,-356.705 2211.83,-357.161 2201.18,-359.791 2201.18,-359.791"/>
</g>
<!-- 26&#45;&gt;1 -->
<g id="edge106" class="edge"><title>26&#45;&gt;1</title>
<path fill="none" stroke="black" d="M2780.85,-247.526C2796.66,-249.138 2812.72,-250.683 2827.98,-252 3105,-275.911 3435.9,-294.32 3575.09,-301.602"/>
<polygon fill="black" stroke="black" points="3585.17,-302.127 3574.95,-306.101 3580.18,-301.867 3575.19,-301.607 3575.19,-301.607 3575.19,-301.607 3580.18,-301.867 3575.42,-297.113 3585.17,-302.127 3585.17,-302.127"/>
</g>
<!-- 26&#45;&gt;40 -->
<g id="edge107" class="edge"><title>26&#45;&gt;40</title>
<path fill="none" stroke="black" d="M2694.73,-252.033C2709.64,-262.35 2728.98,-275.827 2745.98,-288 2767.95,-303.73 2769.53,-314.912 2794.98,-324 2884.09,-355.819 3538.03,-371.587 3744.62,-375.811"/>
<polygon fill="black" stroke="black" points="3754.69,-376.015 3744.6,-380.312 3749.69,-375.914 3744.69,-375.813 3744.69,-375.813 3744.69,-375.813 3749.69,-375.914 3744.78,-371.314 3754.69,-376.015 3754.69,-376.015"/>
</g>
<!-- 27 -->
<g id="node28" class="node"><title>27</title>
<polygon fill="none" stroke="black" points="821.98,-252 579.98,-252 579.98,-216 821.98,-216 821.98,-252"/>
<text text-anchor="middle" x="700.98" y="-230.3" font-family="Times New Roman,serif" font-size="14.00">hisim.components.simple_bucket_boiler</text>
</g>
<!-- 27&#45;&gt;0 -->
<g id="edge108" class="edge"><title>27&#45;&gt;0</title>
<path fill="none" stroke="black" d="M772.594,-252.069C862.656,-272.79 1022.31,-307.058 1160.98,-324 1541.97,-370.545 2008.05,-376.265 2141.61,-376.926"/>
<polygon fill="black" stroke="black" points="2151.72,-376.969 2141.71,-381.426 2146.72,-376.948 2141.72,-376.926 2141.72,-376.926 2141.72,-376.926 2146.72,-376.948 2141.74,-372.426 2151.72,-376.969 2151.72,-376.969"/>
</g>
<!-- 27&#45;&gt;1 -->
<g id="edge109" class="edge"><title>27&#45;&gt;1</title>
<path fill="none" stroke="black" d="M822.032,-251.278C825.043,-251.538 828.029,-251.78 830.98,-252 1112.17,-272.971 3176.03,-299.266 3575.23,-304.187"/>
<polygon fill="black" stroke="black" points="3585.45,-304.313 3575.4,-308.689 3580.45,-304.251 3575.45,-304.19 3575.45,-304.19 3575.45,-304.19 3580.45,-304.251 3575.51,-299.69 3585.45,-304.313 3585.45,-304.313"/>
</g>
<!-- 27&#45;&gt;40 -->
<g id="edge110" class="edge"><title>27&#45;&gt;40</title>
<path fill="none" stroke="black" d="M822.041,-251.165C825.049,-251.459 828.032,-251.738 830.98,-252 1998.57,-355.744 3431.73,-373.77 3744.74,-376.539"/>
<polygon fill="black" stroke="black" points="3754.97,-376.628 3744.93,-381.041 3749.97,-376.584 3744.97,-376.541 3744.97,-376.541 3744.97,-376.541 3749.97,-376.584 3745.01,-372.041 3754.97,-376.628 3754.97,-376.628"/>
</g>
<!-- 28 -->
<g id="node29" class="node"><title>28</title>
<polygon fill="none" stroke="black" points="1440.48,-252 1221.48,-252 1221.48,-216 1440.48,-216 1440.48,-252"/>
<text text-anchor="middle" x="1330.98" y="-230.3" font-family="Times New Roman,serif" font-size="14.00">hisim.components.simple_controller</text>
</g>
<!-- 28&#45;&gt;0 -->
<g id="edge111" class="edge"><title>28&#45;&gt;0</title>
<path fill="none" stroke="black" d="M1405.37,-252.078C1491.37,-271.406 1637.36,-302.933 1763.98,-324 1902.61,-347.065 2068.75,-365.54 2141.62,-373.188"/>
<polygon fill="black" stroke="black" points="2151.68,-374.237 2141.27,-377.676 2146.71,-373.719 2141.74,-373.2 2141.74,-373.2 2141.74,-373.2 2146.71,-373.719 2142.21,-368.724 2151.68,-374.237 2151.68,-374.237"/>
</g>
<!-- 28&#45;&gt;1 -->
<g id="edge112" class="edge"><title>28&#45;&gt;1</title>
<path fill="none" stroke="black" d="M1440.51,-251.141C1443.7,-251.453 1446.86,-251.74 1449.98,-252 1665.87,-269.968 3230.99,-297.888 3575.17,-303.854"/>
<polygon fill="black" stroke="black" points="3585.23,-304.028 3575.15,-308.354 3580.23,-303.942 3575.23,-303.855 3575.23,-303.855 3575.23,-303.855 3580.23,-303.942 3575.31,-299.356 3585.23,-304.028 3585.23,-304.028"/>
</g>
<!-- 28&#45;&gt;40 -->
<g id="edge113" class="edge"><title>28&#45;&gt;40</title>
<path fill="none" stroke="black" d="M1440.51,-251.095C1443.7,-251.42 1446.86,-251.723 1449.98,-252 1675.68,-272.05 2248.83,-234.394 2468.98,-288 2505.29,-296.842 2508.69,-315.037 2544.98,-324 2661.8,-352.856 3505.98,-371.191 3744.41,-375.834"/>
<polygon fill="black" stroke="black" points="3754.64,-376.032 3744.56,-380.338 3749.64,-375.935 3744.64,-375.838 3744.64,-375.838 3744.64,-375.838 3749.64,-375.935 3744.73,-371.339 3754.64,-376.032 3754.64,-376.032"/>
</g>
<!-- 29 -->
<g id="node30" class="node"><title>29</title>
<polygon fill="none" stroke="black" points="1866.98,-252 1660.98,-252 1660.98,-216 1866.98,-216 1866.98,-252"/>
<text text-anchor="middle" x="1763.98" y="-230.3" font-family="Times New Roman,serif" font-size="14.00">hisim.components.simple_storage</text>
</g>
<!-- 29&#45;&gt;0 -->
<g id="edge114" class="edge"><title>29&#45;&gt;0</title>
<path fill="none" stroke="black" d="M1814.04,-252.129C1898.46,-281.014 2067.21,-338.757 2141.92,-364.321"/>
<polygon fill="black" stroke="black" points="2151.82,-367.708 2140.9,-368.728 2147.09,-366.089 2142.36,-364.47 2142.36,-364.47 2142.36,-364.47 2147.09,-366.089 2143.82,-360.213 2151.82,-367.708 2151.82,-367.708"/>
</g>
<!-- 29&#45;&gt;1 -->
<g id="edge115" class="edge"><title>29&#45;&gt;1</title>
<path fill="none" stroke="black" d="M1867.06,-251.124C1870.06,-251.441 1873.04,-251.734 1875.98,-252 2215.27,-282.728 3295.37,-300.034 3575.24,-304.076"/>
<polygon fill="black" stroke="black" points="3585.24,-304.22 3575.18,-308.575 3580.24,-304.148 3575.24,-304.076 3575.24,-304.076 3575.24,-304.076 3580.24,-304.148 3575.31,-299.576 3585.24,-304.22 3585.24,-304.22"/>
</g>
<!-- 29&#45;&gt;40 -->
<g id="edge116" class="edge"><title>29&#45;&gt;40</title>
<path fill="none" stroke="black" d="M1867.07,-251.043C1870.07,-251.383 1873.04,-251.703 1875.98,-252 2032.5,-267.824 2438.37,-226.069 2582.98,-288 2604.37,-297.159 2599.57,-314.908 2620.98,-324 2724.56,-367.979 3514.56,-375.493 3744.42,-376.752"/>
<polygon fill="black" stroke="black" points="3754.62,-376.806 3744.6,-381.253 3749.62,-376.779 3744.62,-376.753 3744.62,-376.753 3744.62,-376.753 3749.62,-376.779 3744.65,-372.253 3754.62,-376.806 3754.62,-376.806"/>
</g>
<!-- 30 -->
<g id="node31" class="node"><title>30</title>
<polygon fill="none" stroke="black" points="3147.98,-108 2933.98,-108 2933.98,-72 3147.98,-72 3147.98,-108"/>
<text text-anchor="middle" x="3040.98" y="-86.3" font-family="Times New Roman,serif" font-size="14.00">hisim.components.smart_controller</text>
</g>
<!-- 30&#45;&gt;0 -->
<g id="edge117" class="edge"><title>30&#45;&gt;0</title>
<path fill="none" stroke="black" d="M2933.62,-90.8551C2404.08,-90.3908 93.6719,-91.3864 41.9799,-144 -14.0866,-201.066 -13.883,-266.734 41.9799,-324 80.1588,-363.138 1859.84,-375.136 2141.59,-376.792"/>
<polygon fill="black" stroke="black" points="2151.71,-376.85 2141.68,-381.292 2146.71,-376.821 2141.71,-376.792 2141.71,-376.792 2141.71,-376.792 2146.71,-376.821 2141.73,-372.292 2151.71,-376.85 2151.71,-376.85"/>
</g>
<!-- 30&#45;&gt;1 -->
<g id="edge118" class="edge"><title>30&#45;&gt;1</title>
<path fill="none" stroke="black" d="M3148.13,-91.2613C3231.18,-94.7091 3347.76,-106.751 3442.98,-144 3494.66,-164.215 3501.78,-181.172 3544.98,-216 3570.63,-236.677 3598.14,-262.285 3617.29,-280.716"/>
<polygon fill="black" stroke="black" points="3624.71,-287.893 3614.39,-284.17 3621.11,-284.415 3617.52,-280.937 3617.52,-280.937 3617.52,-280.937 3621.11,-284.415 3620.65,-277.704 3624.71,-287.893 3624.71,-287.893"/>
</g>
<!-- 30&#45;&gt;15 -->
<g id="edge119" class="edge"><title>30&#45;&gt;15</title>
<path fill="none" stroke="black" d="M3147.98,-93.378C3244.99,-97.7356 3378.61,-109.949 3417.98,-144 3435.52,-159.175 3441.56,-185.466 3443.48,-205.55"/>
<polygon fill="black" stroke="black" points="3444.16,-215.677 3439,-206.001 3443.82,-210.689 3443.49,-205.7 3443.49,-205.7 3443.49,-205.7 3443.82,-210.689 3447.98,-205.398 3444.16,-215.677 3444.16,-215.677"/>
</g>
<!-- 30&#45;&gt;20 -->
<g id="edge120" class="edge"><title>30&#45;&gt;20</title>
<path fill="none" stroke="black" d="M3040.98,-108.303C3040.98,-116.017 3040.98,-125.288 3040.98,-133.888"/>
<polygon fill="black" stroke="black" points="3040.98,-143.896 3036.48,-133.896 3040.98,-138.896 3040.98,-133.896 3040.98,-133.896 3040.98,-133.896 3040.98,-138.896 3045.48,-133.896 3040.98,-143.896 3040.98,-143.896"/>
</g>
<!-- 30&#45;&gt;40 -->
<g id="edge121" class="edge"><title>30&#45;&gt;40</title>
<path fill="none" stroke="black" d="M2981.89,-108.029C2902.02,-133.97 2775.33,-187.269 2827.98,-252 2886.16,-323.53 3538.58,-363.142 3744.86,-373.943"/>
<polygon fill="black" stroke="black" points="3754.92,-374.465 3744.7,-378.44 3749.92,-374.206 3744.93,-373.946 3744.93,-373.946 3744.93,-373.946 3749.92,-374.206 3745.16,-369.453 3754.92,-374.465 3754.92,-374.465"/>
</g>
<!-- 31 -->
<g id="node32" class="node"><title>31</title>
<polygon fill="none" stroke="black" points="1203.48,-252 1040.48,-252 1040.48,-216 1203.48,-216 1203.48,-252"/>
<text text-anchor="middle" x="1121.98" y="-230.3" font-family="Times New Roman,serif" font-size="14.00">hisim.components.storage</text>
</g>
<!-- 31&#45;&gt;0 -->
<g id="edge122" class="edge"><title>31&#45;&gt;0</title>
<path fill="none" stroke="black" d="M1194.89,-252.037C1283.21,-272.08 1436.72,-305.022 1569.98,-324 1785.44,-354.683 2046.48,-370.217 2141.83,-375.184"/>
<polygon fill="black" stroke="black" points="2151.85,-375.699 2141.63,-379.68 2146.85,-375.442 2141.86,-375.186 2141.86,-375.186 2141.86,-375.186 2146.85,-375.442 2142.09,-370.692 2151.85,-375.699 2151.85,-375.699"/>
</g>
<!-- 31&#45;&gt;1 -->
<g id="edge123" class="edge"><title>31&#45;&gt;1</title>
<path fill="none" stroke="black" d="M1203.81,-251.05C1206.56,-251.4 1209.29,-251.719 1211.98,-252 1332.59,-264.619 3196.49,-297.32 3575.16,-303.854"/>
<polygon fill="black" stroke="black" points="3585.41,-304.031 3575.33,-308.357 3580.41,-303.944 3575.41,-303.858 3575.41,-303.858 3575.41,-303.858 3580.41,-303.944 3575.49,-299.359 3585.41,-304.031 3585.41,-304.031"/>
</g>
<!-- 31&#45;&gt;40 -->
<g id="edge124" class="edge"><title>31&#45;&gt;40</title>
<path fill="none" stroke="black" d="M1203.82,-251.019C1206.57,-251.378 1209.29,-251.707 1211.98,-252 1473,-280.454 2137.72,-226.5 2392.98,-288 2429.32,-296.754 2432.68,-315.08 2468.98,-324 2593.47,-354.595 3496.81,-371.815 3744.38,-375.994"/>
<polygon fill="black" stroke="black" points="3754.64,-376.166 3744.57,-380.498 3749.64,-376.082 3744.64,-375.998 3744.64,-375.998 3744.64,-375.998 3749.64,-376.082 3744.72,-371.499 3754.64,-376.166 3754.64,-376.166"/>
</g>
<!-- 32 -->
<g id="node33" class="node"><title>32</title>
<polygon fill="none" stroke="black" points="1642.98,-252 1458.98,-252 1458.98,-216 1642.98,-216 1642.98,-252"/>
<text text-anchor="middle" x="1550.98" y="-230.3" font-family="Times New Roman,serif" font-size="14.00">hisim.components.sumbuilder</text>
</g>
<!-- 32&#45;&gt;0 -->
<g id="edge125" class="edge"><title>32&#45;&gt;0</title>
<path fill="none" stroke="black" d="M1618.3,-252.055C1691.96,-270.536 1813.6,-300.525 1918.98,-324 1998.11,-341.628 2091.31,-360.066 2141.85,-369.87"/>
<polygon fill="black" stroke="black" points="2151.96,-371.827 2141.29,-374.345 2147.05,-370.877 2142.14,-369.927 2142.14,-369.927 2142.14,-369.927 2147.05,-370.877 2143,-365.509 2151.96,-371.827 2151.96,-371.827"/>
</g>
<!-- 32&#45;&gt;1 -->
<g id="edge126" class="edge"><title>32&#45;&gt;1</title>
<path fill="none" stroke="black" d="M1643.11,-251.054C1646.1,-251.399 1649.06,-251.717 1651.98,-252 1846.48,-270.865 3250.55,-297.764 3575.14,-303.777"/>
<polygon fill="black" stroke="black" points="3585.33,-303.966 3575.24,-308.28 3580.33,-303.873 3575.33,-303.781 3575.33,-303.781 3575.33,-303.781 3580.33,-303.873 3575.41,-299.281 3585.33,-303.966 3585.33,-303.966"/>
</g>
<!-- 32&#45;&gt;40 -->
<g id="edge127" class="edge"><title>32&#45;&gt;40</title>
<path fill="none" stroke="black" d="M1643.11,-251.001C1646.1,-251.362 1649.06,-251.697 1651.98,-252 1750.75,-262.262 2453.49,-249.391 2544.98,-288 2566.41,-297.045 2561.56,-314.923 2582.98,-324 2690.26,-369.462 3510.61,-375.928 3744.76,-376.848"/>
<polygon fill="black" stroke="black" points="3754.81,-376.885 3744.8,-381.348 3749.81,-376.866 3744.81,-376.848 3744.81,-376.848 3744.81,-376.848 3749.81,-376.866 3744.83,-372.348 3754.81,-376.885 3754.81,-376.885"/>
</g>
<!-- 33 -->
<g id="node34" class="node"><title>33</title>
<polygon fill="none" stroke="black" points="6202.48,-252 6033.48,-252 6033.48,-216 6202.48,-216 6202.48,-252"/>
<text text-anchor="middle" x="6117.98" y="-230.3" font-family="Times New Roman,serif" font-size="14.00">hisim.components.template</text>
</g>
<!-- 33&#45;&gt;1 -->
<g id="edge128" class="edge"><title>33&#45;&gt;1</title>
<path fill="none" stroke="black" d="M6033.27,-250.976C6030.14,-251.358 6027.03,-251.702 6023.98,-252 5016.65,-350.388 4755.18,-198.886 3746.98,-288 3734.57,-289.097 3721.41,-290.796 3708.75,-292.705"/>
<polygon fill="black" stroke="black" points="3698.74,-294.272 3707.92,-288.28 3703.68,-293.499 3708.62,-292.726 3708.62,-292.726 3708.62,-292.726 3703.68,-293.499 3709.31,-297.172 3698.74,-294.272 3698.74,-294.272"/>
</g>
<!-- 33&#45;&gt;40 -->
<g id="edge129" class="edge"><title>33&#45;&gt;40</title>
<path fill="none" stroke="black" d="M6039.63,-252.079C6009.04,-260.498 5974.34,-272.285 5944.98,-288 5922.7,-299.925 5924.67,-315.205 5900.98,-324 5803.44,-360.214 4206.5,-374.038 3869.22,-376.561"/>
<polygon fill="black" stroke="black" points="3859.15,-376.636 3869.12,-372.061 3864.15,-376.598 3869.15,-376.561 3869.15,-376.561 3869.15,-376.561 3864.15,-376.598 3869.18,-381.061 3859.15,-376.636 3859.15,-376.636"/>
</g>
<!-- 33&#45;&gt;47 -->
<g id="edge130" class="edge"><title>33&#45;&gt;47</title>
<path fill="none" stroke="black" d="M6089.45,-252.036C6053.87,-272.477 5990.55,-306.211 5931.98,-324 5841.53,-351.472 5734.09,-364.866 5658.92,-371.293"/>
<polygon fill="black" stroke="black" points="5648.53,-372.155 5658.12,-366.844 5653.51,-371.742 5658.49,-371.328 5658.49,-371.328 5658.49,-371.328 5653.51,-371.742 5658.87,-375.813 5648.53,-372.155 5648.53,-372.155"/>
</g>
<!-- 34 -->
<g id="node35" class="node"><title>34</title>
<polygon fill="none" stroke="black" points="2072.48,-252 1885.48,-252 1885.48,-216 2072.48,-216 2072.48,-252"/>
<text text-anchor="middle" x="1978.98" y="-230.3" font-family="Times New Roman,serif" font-size="14.00">hisim.components.transformer</text>
</g>
<!-- 34&#45;&gt;0 -->
<g id="edge131" class="edge"><title>34&#45;&gt;0</title>
<path fill="none" stroke="black" d="M2003.1,-252.129C2038.92,-277.556 2106.23,-325.346 2146.39,-353.861"/>
<polygon fill="black" stroke="black" points="2154.77,-359.811 2144.01,-357.691 2150.69,-356.916 2146.62,-354.021 2146.62,-354.021 2146.62,-354.021 2150.69,-356.916 2149.22,-350.352 2154.77,-359.811 2154.77,-359.811"/>
</g>
<!-- 34&#45;&gt;1 -->
<g id="edge132" class="edge"><title>34&#45;&gt;1</title>
<path fill="none" stroke="black" d="M2072.66,-250.991C2075.8,-251.358 2078.91,-251.696 2081.98,-252 2378.38,-281.371 3316.04,-299.381 3575.1,-303.884"/>
<polygon fill="black" stroke="black" points="3585.48,-304.063 3575.4,-308.39 3580.48,-303.977 3575.48,-303.89 3575.48,-303.89 3575.48,-303.89 3580.48,-303.977 3575.56,-299.391 3585.48,-304.063 3585.48,-304.063"/>
</g>
<!-- 34&#45;&gt;40 -->
<g id="edge133" class="edge"><title>34&#45;&gt;40</title>
<path fill="none" stroke="black" d="M2072.67,-250.86C2075.81,-251.264 2078.92,-251.646 2081.98,-252 2201.23,-265.791 2511.01,-239.87 2620.98,-288 2642.29,-297.327 2637.57,-314.892 2658.98,-324 2758.94,-366.53 3519.72,-375.055 3744.58,-376.653"/>
<polygon fill="black" stroke="black" points="3754.88,-376.724 3744.85,-381.155 3749.88,-376.689 3744.88,-376.655 3744.88,-376.655 3744.88,-376.655 3749.88,-376.689 3744.91,-372.155 3754.88,-376.724 3754.88,-376.724"/>
</g>
<!-- 35 -->
<g id="node36" class="node"><title>35</title>
<polygon fill="none" stroke="black" points="4663.48,-252 4498.48,-252 4498.48,-216 4663.48,-216 4663.48,-252"/>
<text text-anchor="middle" x="4580.98" y="-230.3" font-family="Times New Roman,serif" font-size="14.00">hisim.components.weather</text>
</g>
<!-- 35&#45;&gt;0 -->
<g id="edge134" class="edge"><title>35&#45;&gt;0</title>
<path fill="none" stroke="black" d="M4498.28,-250.639C4495.15,-251.118 4492.04,-251.574 4488.98,-252 4320.08,-275.516 4275.4,-261.229 4106.98,-288 4034.99,-299.443 4019.29,-314.866 3946.98,-324 3595.15,-368.439 2439.03,-375.833 2216.3,-376.854"/>
<polygon fill="black" stroke="black" points="2206.11,-376.899 2216.09,-372.354 2211.11,-376.876 2216.11,-376.854 2216.11,-376.854 2216.11,-376.854 2211.11,-376.876 2216.13,-381.354 2206.11,-376.899 2206.11,-376.899"/>
</g>
<!-- 35&#45;&gt;1 -->
<g id="edge135" class="edge"><title>35&#45;&gt;1</title>
<path fill="none" stroke="black" d="M4498.31,-250.818C4495.16,-251.247 4492.05,-251.644 4488.98,-252 4161.02,-290.082 4075.34,-253.562 3746.98,-288 3734.52,-289.307 3721.28,-291.116 3708.56,-293.068"/>
<polygon fill="black" stroke="black" points="3698.5,-294.658 3707.67,-288.653 3703.44,-293.878 3708.37,-293.098 3708.37,-293.098 3708.37,-293.098 3703.44,-293.878 3709.08,-297.543 3698.5,-294.658 3698.5,-294.658"/>
</g>
<!-- 35&#45;&gt;40 -->
<g id="edge136" class="edge"><title>35&#45;&gt;40</title>
<path fill="none" stroke="black" d="M4498.27,-251.039C4404.44,-269.146 4246.82,-299.299 4110.98,-324 4027.35,-339.208 3930.6,-355.924 3869.13,-366.437"/>
<polygon fill="black" stroke="black" points="3859.2,-368.133 3868.3,-362.013 3864.13,-367.291 3869.06,-366.449 3869.06,-366.449 3869.06,-366.449 3864.13,-367.291 3869.81,-370.885 3859.2,-368.133 3859.2,-368.133"/>
</g>
<!-- 35&#45;&gt;47 -->
<g id="edge137" class="edge"><title>35&#45;&gt;47</title>
<path fill="none" stroke="black" d="M4656.68,-252.058C4746.68,-271.812 4901.61,-304.171 5035.98,-324 5187.68,-346.387 5365.29,-362.039 5471.28,-370.269"/>
<polygon fill="black" stroke="black" points="5481.31,-371.042 5470.99,-374.76 5476.32,-370.658 5471.34,-370.273 5471.34,-370.273 5471.34,-370.273 5476.32,-370.658 5471.68,-365.787 5481.31,-371.042 5481.31,-371.042"/>
</g>
<!-- 35&#45;&gt;49 -->
<g id="edge138" class="edge"><title>35&#45;&gt;49</title>
<path fill="none" stroke="black" d="M4498.3,-250.743C4495.16,-251.193 4492.04,-251.615 4488.98,-252 4253.41,-281.62 4192.54,-267.757 3955.98,-288 3916.22,-291.402 3871.13,-296.141 3838.3,-299.751"/>
<polygon fill="black" stroke="black" points="3828.1,-300.88 3837.54,-295.307 3833.07,-300.33 3838.04,-299.78 3838.04,-299.78 3838.04,-299.78 3833.07,-300.33 3838.53,-304.253 3828.1,-300.88 3828.1,-300.88"/>
</g>
<!-- 36 -->
<g id="node37" class="node"><title>36</title>
<polygon fill="none" stroke="black" points="6500.48,-36 6387.48,-36 6387.48,-0 6500.48,-0 6500.48,-36"/>
<text text-anchor="middle" x="6443.98" y="-14.3" font-family="Times New Roman,serif" font-size="14.00">hisim.hisim_main</text>
</g>
<!-- 48 -->
<g id="node49" class="node"><title>48</title>
<polygon fill="none" stroke="black" points="6494.48,-108 6393.48,-108 6393.48,-72 6494.48,-72 6494.48,-108"/>
<text text-anchor="middle" x="6443.98" y="-86.3" font-family="Times New Roman,serif" font-size="14.00">hisim.simulator</text>
</g>
<!-- 36&#45;&gt;48 -->
<g id="edge139" class="edge"><title>36&#45;&gt;48</title>
<path fill="none" stroke="black" d="M6443.98,-36.3034C6443.98,-44.0173 6443.98,-53.2875 6443.98,-61.8876"/>
<polygon fill="black" stroke="black" points="6443.98,-71.8957 6439.48,-61.8956 6443.98,-66.8957 6443.98,-61.8957 6443.98,-61.8957 6443.98,-61.8957 6443.98,-66.8957 6448.48,-61.8957 6443.98,-71.8957 6443.98,-71.8957"/>
</g>
<!-- 37 -->
<g id="node38" class="node"><title>37</title>
<polygon fill="none" stroke="black" points="6770.48,-36 6687.48,-36 6687.48,-0 6770.48,-0 6770.48,-36"/>
<text text-anchor="middle" x="6728.98" y="-14.3" font-family="Times New Roman,serif" font-size="14.00">hisim.inputs</text>
</g>
<!-- 41 -->
<g id="node42" class="node"><title>41</title>
<polygon fill="none" stroke="black" points="7572.48,-180 7437.48,-180 7437.48,-144 7572.48,-144 7572.48,-180"/>
<text text-anchor="middle" x="7504.98" y="-158.3" font-family="Times New Roman,serif" font-size="14.00">hisim.postprocessing</text>
</g>
<!-- 42 -->
<g id="node43" class="node"><title>42</title>
<polygon fill="none" stroke="black" points="6752.98,-252 6526.98,-252 6526.98,-216 6752.98,-216 6752.98,-252"/>
<text text-anchor="middle" x="6639.98" y="-230.3" font-family="Times New Roman,serif" font-size="14.00">hisim.postprocessing.chart_singleday</text>
</g>
<!-- 43 -->
<g id="node44" class="node"><title>43</title>
<polygon fill="none" stroke="black" points="6620.98,-324 6428.98,-324 6428.98,-288 6620.98,-288 6620.98,-324"/>
<text text-anchor="middle" x="6524.98" y="-302.3" font-family="Times New Roman,serif" font-size="14.00">hisim.postprocessing.chartbase</text>
</g>
<!-- 42&#45;&gt;43 -->
<g id="edge140" class="edge"><title>42&#45;&gt;43</title>
<path fill="none" stroke="black" d="M6611.85,-252.124C6596.81,-261.276 6578.11,-272.658 6561.92,-282.515"/>
<polygon fill="black" stroke="black" points="6553.22,-287.81 6559.42,-278.767 6557.49,-285.21 6561.76,-282.611 6561.76,-282.611 6561.76,-282.611 6557.49,-285.21 6564.1,-286.455 6553.22,-287.81 6553.22,-287.81"/>
</g>
<!-- 44 -->
<g id="node45" class="node"><title>44</title>
<polygon fill="none" stroke="black" points="6508.48,-252 6335.48,-252 6335.48,-216 6508.48,-216 6508.48,-252"/>
<text text-anchor="middle" x="6421.98" y="-230.3" font-family="Times New Roman,serif" font-size="14.00">hisim.postprocessing.charts</text>
</g>
<!-- 44&#45;&gt;43 -->
<g id="edge141" class="edge"><title>44&#45;&gt;43</title>
<path fill="none" stroke="black" d="M6447.18,-252.124C6460.39,-261.107 6476.77,-272.237 6491.09,-281.966"/>
<polygon fill="black" stroke="black" points="6499.69,-287.81 6488.89,-285.911 6495.55,-285 6491.42,-282.189 6491.42,-282.189 6491.42,-282.189 6495.55,-285 6493.95,-278.467 6499.69,-287.81 6499.69,-287.81"/>
</g>
<!-- 45 -->
<g id="node46" class="node"><title>45</title>
<polygon fill="none" stroke="black" points="5684.98,-180 5426.98,-180 5426.98,-144 5684.98,-144 5684.98,-180"/>
<text text-anchor="middle" x="5555.98" y="-158.3" font-family="Times New Roman,serif" font-size="14.00">hisim.postprocessing.postprocessing_main</text>
</g>
<!-- 45&#45;&gt;0 -->
<g id="edge142" class="edge"><title>45&#45;&gt;0</title>
<path fill="none" stroke="black" d="M5426.78,-164.304C4619.54,-172.448 302.98,-216 302.98,-216 228.952,-290.778 308.932,-290.55 422.98,-324 593.042,-373.879 1901.8,-376.875 2141.38,-377.003"/>
<polygon fill="black" stroke="black" points="2151.66,-377.007 2141.66,-381.503 2146.66,-377.005 2141.66,-377.003 2141.66,-377.003 2141.66,-377.003 2146.66,-377.005 2141.66,-372.503 2151.66,-377.007 2151.66,-377.007"/>
</g>
<!-- 45&#45;&gt;1 -->
<g id="edge143" class="edge"><title>45&#45;&gt;1</title>
<path fill="none" stroke="black" d="M5426.76,-164.249C5024.62,-168.467 3817.58,-183.76 3739.98,-216 3718.5,-224.926 3719.14,-236.297 3701.98,-252 3691.36,-261.719 3679.51,-272.251 3669.16,-281.346"/>
<polygon fill="black" stroke="black" points="3661.59,-287.984 3666.14,-278.008 3665.35,-284.688 3669.11,-281.392 3669.11,-281.392 3669.11,-281.392 3665.35,-284.688 3672.07,-284.776 3661.59,-287.984 3661.59,-287.984"/>
</g>
<!-- 45&#45;&gt;40 -->
<g id="edge144" class="edge"><title>45&#45;&gt;40</title>
<path fill="none" stroke="black" d="M5685.24,-179.135C5688.18,-179.433 5691.1,-179.722 5693.98,-180 5751.41,-185.529 6172.62,-173.813 6211.98,-216 6222.89,-227.699 6221.76,-239.334 6211.98,-252 6134.78,-352.013 6062.08,-306.311 5936.98,-324 5728.08,-353.54 4199.79,-372.523 3869.71,-376.303"/>
<polygon fill="black" stroke="black" points="3859.39,-376.421 3869.34,-371.807 3864.39,-376.364 3869.39,-376.307 3869.39,-376.307 3869.39,-376.307 3864.39,-376.364 3869.44,-380.807 3859.39,-376.421 3859.39,-376.421"/>
</g>
<!-- 45&#45;&gt;42 -->
<g id="edge145" class="edge"><title>45&#45;&gt;42</title>
<path fill="none" stroke="black" d="M5685.23,-179.236C5688.17,-179.504 5691.09,-179.76 5693.98,-180 6055.99,-210.158 6151.21,-183.164 6516.64,-215.932"/>
<polygon fill="black" stroke="black" points="6526.7,-216.844 6516.34,-220.423 6521.72,-216.393 6516.74,-215.942 6516.74,-215.942 6516.74,-215.942 6521.72,-216.393 6517.15,-211.46 6526.7,-216.844 6526.7,-216.844"/>
</g>
<!-- 45&#45;&gt;44 -->
<g id="edge146" class="edge"><title>45&#45;&gt;44</title>
<path fill="none" stroke="black" d="M5685.24,-179.182C5688.18,-179.467 5691.09,-179.74 5693.98,-180 5971.98,-205.077 6043.6,-184.788 6320.98,-216 6322.3,-216.148 6323.62,-216.302 6324.96,-216.461"/>
<polygon fill="black" stroke="black" points="6335.29,-217.779 6324.8,-220.978 6330.33,-217.147 6325.37,-216.514 6325.37,-216.514 6325.37,-216.514 6330.33,-217.147 6325.94,-212.051 6335.29,-217.779 6335.29,-217.779"/>
</g>
<!-- 46 -->
<g id="node47" class="node"><title>46</title>
<polygon fill="none" stroke="black" points="485.48,-252 312.48,-252 312.48,-216 485.48,-216 485.48,-252"/>
<text text-anchor="middle" x="398.98" y="-230.3" font-family="Times New Roman,serif" font-size="14.00">hisim.postprocessing.report</text>
</g>
<!-- 45&#45;&gt;46 -->
<g id="edge147" class="edge"><title>45&#45;&gt;46</title>
<path fill="none" stroke="black" d="M5426.79,-164.286C4640.59,-172.121 531.608,-213.19 499.98,-216 498.66,-216.117 497.331,-216.242 495.995,-216.374"/>
<polygon fill="black" stroke="black" points="485.641,-217.514 495.088,-211.947 490.611,-216.967 495.581,-216.42 495.581,-216.42 495.581,-216.42 490.611,-216.967 496.073,-220.893 485.641,-217.514 485.641,-217.514"/>
</g>
<!-- 45&#45;&gt;47 -->
<g id="edge148" class="edge"><title>45&#45;&gt;47</title>
<path fill="none" stroke="black" d="M5685.23,-179.275C5688.17,-179.532 5691.09,-179.774 5693.98,-180 5753.17,-184.634 6720.71,-173.32 6761.98,-216 6840.12,-296.816 6766.29,-285.61 6629.98,-324 6448.89,-375.003 5884.02,-378.427 5658.93,-377.673"/>
<polygon fill="black" stroke="black" points="5648.79,-377.635 5658.81,-373.173 5653.79,-377.654 5658.79,-377.673 5658.79,-377.673 5658.79,-377.673 5653.79,-377.654 5658.78,-382.173 5648.79,-377.635 5648.79,-377.635"/>
</g>
<!-- 45&#45;&gt;49 -->
<g id="edge149" class="edge"><title>45&#45;&gt;49</title>
<path fill="none" stroke="black" d="M5426.96,-164.614C5047.57,-169.688 3957.7,-186.743 3886.98,-216 3855.09,-229.195 3827.43,-258.323 3810.32,-279.676"/>
<polygon fill="black" stroke="black" points="3804.07,-287.714 3806.65,-277.056 3807.14,-283.765 3810.21,-279.817 3810.21,-279.817 3810.21,-279.817 3807.14,-283.765 3813.76,-282.579 3804.07,-287.714 3804.07,-287.714"/>
</g>
<!-- 46&#45;&gt;0 -->
<g id="edge150" class="edge"><title>46&#45;&gt;0</title>
<path fill="none" stroke="black" d="M405.454,-252.114C414.5,-273.308 433.127,-308.505 461.98,-324 538.515,-365.102 1898.48,-375.292 2141.86,-376.789"/>
<polygon fill="black" stroke="black" points="2151.96,-376.85 2141.94,-381.29 2146.96,-376.82 2141.96,-376.79 2141.96,-376.79 2141.96,-376.79 2146.96,-376.82 2141.99,-372.29 2151.96,-376.85 2151.96,-376.85"/>
</g>
<!-- 46&#45;&gt;49 -->
<g id="edge151" class="edge"><title>46&#45;&gt;49</title>
<path fill="none" stroke="black" d="M485.485,-245.034C512.797,-247.803 543.116,-250.466 570.98,-252 1266.86,-290.311 3013.84,-215.346 3706.98,-288 3719.73,-289.337 3733.42,-291.668 3746,-294.182"/>
<polygon fill="black" stroke="black" points="3755.81,-296.223 3745.1,-298.592 3750.91,-295.205 3746.02,-294.187 3746.02,-294.187 3746.02,-294.187 3750.91,-295.205 3746.93,-289.781 3755.81,-296.223 3755.81,-296.223"/>
</g>
<!-- 48&#45;&gt;0 -->
<g id="edge152" class="edge"><title>48&#45;&gt;0</title>
<path fill="none" stroke="black" d="M6393.34,-91.5069C5797.86,-97.524 150.332,-156.153 91.9799,-216 58.4706,-250.367 58.4724,-289.631 91.9799,-324 129.217,-362.195 1863.77,-374.967 2141.62,-376.769"/>
<polygon fill="black" stroke="black" points="2151.97,-376.836 2141.94,-381.271 2146.97,-376.803 2141.97,-376.771 2141.97,-376.771 2141.97,-376.771 2146.97,-376.803 2141.99,-372.271 2151.97,-376.836 2151.97,-376.836"/>
</g>
<!-- 48&#45;&gt;1 -->
<g id="edge153" class="edge"><title>48&#45;&gt;1</title>
<path fill="none" stroke="black" d="M6393.45,-91.051C6021.05,-91.5358 3714.77,-96.4564 3661.98,-144 3624.93,-177.367 3629.56,-241.574 3635.94,-278.014"/>
<polygon fill="black" stroke="black" points="3637.84,-287.937 3631.54,-278.963 3636.9,-283.026 3635.96,-278.115 3635.96,-278.115 3635.96,-278.115 3636.9,-283.026 3640.38,-277.268 3637.84,-287.937 3637.84,-287.937"/>
</g>
<!-- 48&#45;&gt;40 -->
<g id="edge154" class="edge"><title>48&#45;&gt;40</title>
<path fill="none" stroke="black" d="M6494.67,-91.1339C6659.26,-92.6505 7174.75,-106.238 7289.98,-216 7325.58,-249.914 7348.49,-288.969 7313.98,-324 7298.24,-339.977 4338.56,-371.462 3869.33,-376.355"/>
<polygon fill="black" stroke="black" points="3859.03,-376.462 3868.98,-371.858 3864.03,-376.41 3869.03,-376.358 3869.03,-376.358 3869.03,-376.358 3864.03,-376.41 3869.07,-380.857 3859.03,-376.462 3859.03,-376.462"/>
</g>
<!-- 48&#45;&gt;41 -->
<g id="edge155" class="edge"><title>48&#45;&gt;41</title>
<path fill="none" stroke="black" d="M6494.66,-91.064C6639.89,-91.8227 7069.78,-98.0918 7422.98,-144 7424.28,-144.169 7425.59,-144.346 7426.9,-144.533"/>
<polygon fill="black" stroke="black" points="7437.1,-146.108 7426.53,-149.029 7432.16,-145.345 7427.22,-144.581 7427.22,-144.581 7427.22,-144.581 7432.16,-145.345 7427.9,-140.134 7437.1,-146.108 7437.1,-146.108"/>
</g>
<!-- 48&#45;&gt;45 -->
<g id="edge156" class="edge"><title>48&#45;&gt;45</title>
<path fill="none" stroke="black" d="M6393.43,-93.6621C6273.92,-100.151 5964.43,-118.102 5695.2,-143.909"/>
<polygon fill="black" stroke="black" points="5685.24,-144.87 5694.76,-139.431 5690.22,-144.39 5695.19,-143.91 5695.19,-143.91 5695.19,-143.91 5690.22,-144.39 5695.63,-148.389 5685.24,-144.87 5685.24,-144.87"/>
</g>
<!-- 48&#45;&gt;47 -->
<g id="edge157" class="edge"><title>48&#45;&gt;47</title>
<path fill="none" stroke="black" d="M6494.54,-92.0698C6680.53,-96.248 7317.55,-112.795 7346.98,-144 7378.8,-177.747 7447.76,-217.28 7335.98,-324 7305.4,-353.192 6020.78,-371.337 5658.94,-375.876"/>
<polygon fill="black" stroke="black" points="5648.77,-376.003 5658.71,-371.379 5653.76,-375.941 5658.76,-375.878 5658.76,-375.878 5658.76,-375.878 5653.76,-375.941 5658.82,-380.378 5648.77,-376.003 5648.77,-376.003"/>
</g>
</g>
</svg>
